<svg width="397" height="600" xmlns="http://www.w3.org/2000/svg" xmlns:xlink="http://www.w3.org/1999/xlink" version="1.1" baseProfile="full" viewBox="0 0 397 600">
<rect width="397" height="600" x="0" y="0" id="0" fill="var(--active-bg)"></rect>
<path d="M65 540.5L387 540.5" fill="none" stroke="var(--transparent-fg)" stroke-opacity="0.25" stroke-dasharray="1"></path>
<path d="M65 436.5L387 436.5" fill="none" stroke="var(--transparent-fg)" stroke-opacity="0.25" stroke-dasharray="1"></path>
<path d="M65 332.5L387 332.5" fill="none" stroke="var(--transparent-fg)" stroke-opacity="0.25" stroke-dasharray="1"></path>
<path d="M65 228.5L387 228.5" fill="none" stroke="var(--transparent-fg)" stroke-opacity="0.25" stroke-dasharray="1"></path>
<path d="M65 124.5L387 124.5" fill="none" stroke="var(--transparent-fg)" stroke-opacity="0.25" stroke-dasharray="1"></path>
<path d="M65 20.5L387 20.5" fill="none" stroke="var(--transparent-fg)" stroke-opacity="0.25" stroke-dasharray="1"></path>
<path d="M65 540.5L387 540.5" fill="none" stroke="#6E7079" stroke-linecap="round"></path>
<text dominant-baseline="central" text-anchor="middle" style="font-size:12px;font-family:sans-serif;" xml:space="preserve" y="25.700042724609375" transform="translate(226 555)" fill="#6E7079">2 Eki 2024</text>
<path d="M79.5 540L79.5 545" fill="none" stroke="#6E7079"></path>
<path d="M119.5 540L119.5 545" fill="none" stroke="#6E7079"></path>
<path d="M160.5 540L160.5 545" fill="none" stroke="#6E7079"></path>
<path d="M201.5 540L201.5 545" fill="none" stroke="#6E7079"></path>
<path d="M241.5 540L241.5 545" fill="none" stroke="#6E7079"></path>
<path d="M282.5 540L282.5 545" fill="none" stroke="#6E7079"></path>
<path d="M323.5 540L323.5 545" fill="none" stroke="#6E7079"></path>
<path d="M364.5 540L364.5 545" fill="none" stroke="#6E7079"></path>
<text dominant-baseline="central" text-anchor="end" style="font-size:11px;font-family:sans-serif;" xml:space="preserve" transform="translate(57 540)" fill="#6E7079">0 MvB</text>
<text dominant-baseline="central" text-anchor="end" style="font-size:11px;font-family:sans-serif;" xml:space="preserve" transform="translate(57 436)" fill="#6E7079">20 MvB</text>
<text dominant-baseline="central" text-anchor="end" style="font-size:11px;font-family:sans-serif;" xml:space="preserve" transform="translate(57 332)" fill="#6E7079">40 MvB</text>
<text dominant-baseline="central" text-anchor="end" style="font-size:11px;font-family:sans-serif;" xml:space="preserve" transform="translate(57 228)" fill="#6E7079">60 MvB</text>
<text dominant-baseline="central" text-anchor="end" style="font-size:11px;font-family:sans-serif;" xml:space="preserve" transform="translate(57 124)" fill="#6E7079">80 MvB</text>
<text dominant-baseline="central" text-anchor="end" style="font-size:11px;font-family:sans-serif;" xml:space="preserve" transform="translate(57 20)" fill="#6E7079">100 MvB</text>
<path d="M-18.9622 0l37.9243 0l0 12l-37.9243 0Z" transform="translate(119.5034 560)" fill="none"></path>
<text dominant-baseline="central" text-anchor="middle" style="font: normal normal 11px sans-serif" y="6" transform="translate(119.5034 560)" fill="#6E7079">19:15</text>
<path d="M-18.9622 0l37.9243 0l0 12l-37.9243 0Z" transform="translate(160.2114 560)" fill="none"></path>
<text dominant-baseline="central" text-anchor="middle" style="font: normal normal 11px sans-serif" y="6" transform="translate(160.2114 560)" fill="#6E7079">19:30</text>
<path d="M-18.9622 0l37.9243 0l0 12l-37.9243 0Z" transform="translate(200.9194 560)" fill="none"></path>
<text dominant-baseline="central" text-anchor="middle" style="font: normal normal 11px sans-serif" y="6" transform="translate(200.9194 560)" fill="#6E7079">19:45</text>
<path d="M-18.9622 0l37.9243 0l0 12l-37.9243 0Z" transform="translate(282.3353 560)" fill="none"></path>
<text dominant-baseline="central" text-anchor="middle" style="font: normal normal 11px sans-serif" y="6" transform="translate(282.3353 560)" fill="#6E7079">20:15</text>
<path d="M-18.9622 0l37.9243 0l0 12l-37.9243 0Z" transform="translate(323.0433 560)" fill="none"></path>
<text dominant-baseline="central" text-anchor="middle" style="font: normal normal 11px sans-serif" y="6" transform="translate(323.0433 560)" fill="#6E7079">20:30</text>
<path d="M-18.9622 0l37.9243 0l0 12l-37.9243 0Z" transform="translate(363.7512 560)" fill="none"></path>
<text dominant-baseline="central" text-anchor="middle" style="font: normal normal 11px sans-serif" y="6" transform="translate(363.7512 560)" fill="#6E7079">20:45</text>
<path d="M-20.2314 0l40.4629 0l0 12l-40.4629 0Z" transform="translate(78.7955 560)" fill="none"></path>
<text dominant-baseline="central" text-anchor="middle" style="font-size:12px;font-family:sans-serif;font-weight:bold;" y="6" transform="translate(78.7955 560)" fill="#6E7079">19:00</text>
<path d="M-20.2314 0l40.4629 0l0 12l-40.4629 0Z" transform="translate(241.6273 560)" fill="none"></path>
<text dominant-baseline="central" text-anchor="middle" style="font-size:12px;font-family:sans-serif;font-weight:bold;" y="6" transform="translate(241.6273 560)" fill="#6E7079">20:00</text>
<g clip-path="url(#zr1-c0)">
<path d="M65 55.6998L67.7139 55.6874L70.2016 55.6874L73.2321 55.6822L75.9911 55.6728L78.705 55.6702L81.4189 55.569L84.1327 55.5631L86.8466 55.5544L89.5605 55.5525L92.3196 55.551L95.0334 55.4463L97.7473 55.4461L100.4612 55.4443L103.175 55.4405L105.8889 55.44L108.648 55.4325L111.3618 55.431L114.0757 55.4314L116.8348 55.4314L119.5487 55.4314L122.2625 55.4368L124.9764 55.4303L127.6903 55.431L130.4041 55.431L133.1632 55.431L135.8771 55.428L138.6362 55.428L140.6264 55.428L141.4405 55.4298L144.1091 55.38L146.823 55.3782L149.5369 55.3747L152.2507 55.3747L155.0098 55.1852L157.7237 55.1826L160.4376 55.0893L163.1514 55.0881L165.8653 55.0881L168.5791 55.0889L171.293 55.0889L174.0521 55.0882L176.8112 55.0847L179.5703 55.0847L180.3845 55.0847L182.2842 55.0818L184.9528 55.0864L187.7571 55.0864L190.5162 55.0845L193.2301 54.9916L195.9892 54.9766L198.703 54.9778L201.4169 54.9764L204.1308 54.9713L206.8446 54.9713L209.6037 54.9702L212.2724 54.9721L215.0315 54.9726L217.7453 54.9726L220.4592 54.8786L222.8112 54.8783L225.4798 54.875L228.646 54.8741L231.3599 54.8729L234.0737 54.8729L236.7876 54.8713L239.5015 54.6854L242.2153 54.6863L243.8889 54.6872L247.7335 54.6861L250.4926 54.6861L253.2065 54.4986L255.9656 54.4986L258.6794 54.4945L261.3933 54.4953L264.1524 54.4103L266.8663 54.4113L269.6254 54.4113L272.3845 54.4105L275.0983 54.4105L277.8122 54.4105L280.5261 54.4105L283.2399 54.4097L285.9538 54.4097L288.6677 54.4107L291.4268 54.4091L294.1406 54.4091L295.7237 54.4091L299.5683 54.4007L302.3274 54.4007L305.0865 54.4007L307.8456 54.3072L310.5595 54.3072L313.2733 54.3072L315.9872 54.3072L318.7463 54.1202L321.4602 54.1202L324.2193 54.1115L326.9331 53.9172L329.6922 53.7784L332.4061 53.6837L335.1652 53.683L337.8338 53.6831L339.1908 53.6801L343.352 53.6575L346.0659 53.6544L348.7798 53.6559L351.4936 53.6559L354.2075 53.6559L356.9666 53.5624L359.6804 53.5605L362.4395 53.5589L365.1534 53.5575L367.8672 53.5558L370.6263 53.4507L373.3402 53.4507L376.0541 53.4507L378.7679 53.4519L381.527 53.453L384.2409 53.4493L387 53.4493L387 540L384.2409 540L381.527 540L378.7679 540L376.0541 540L373.3402 540L370.6263 540L367.8672 540L365.1534 540L362.4395 540L359.6804 540L356.9666 540L354.2075 540L351.4936 540L348.7798 540L346.0659 540L343.352 540L339.4169 540L337.8338 540L335.1652 540L332.4061 540L329.6922 540L326.9331 540L324.2193 540L321.4602 540L318.7463 540L315.9872 540L313.2733 540L310.5595 540L307.8456 540L305.0865 540L302.3274 540L299.5683 540L296.0403 540L294.1406 540L291.4268 540L288.6677 540L285.9538 540L283.2399 540L280.5261 540L277.8122 540L275.0983 540L272.3845 540L269.6254 540L266.8663 540L264.1524 540L261.3933 540L258.6794 540L255.9656 540L253.2065 540L250.4926 540L247.7335 540L244.1603 540L242.2153 540L239.5015 540L236.7876 540L234.0737 540L231.3599 540L228.646 540L225.706 540L223.0826 540L220.4592 540L217.7453 540L215.0315 540L212.2724 540L209.6037 540L206.8446 540L204.1308 540L201.4169 540L198.703 540L195.9892 540L193.2301 540L190.5162 540L187.7571 540L184.9528 540L182.2842 540L180.6559 540L179.5703 540L176.8112 540L174.0521 540L171.293 540L168.5791 540L165.8653 540L163.1514 540L160.4376 540L157.7237 540L155.0098 540L152.2507 540L149.5369 540L146.823 540L144.1091 540L141.4405 540L140.6264 540L138.6362 540L135.8771 540L133.1632 540L130.4041 540L127.6903 540L124.9764 540L122.2625 540L119.5487 540L116.8348 540L114.0757 540L111.3618 540L108.648 540L105.8889 540L103.175 540L100.4612 540L97.7473 540L95.0334 540L92.3196 540L89.5605 540L86.8466 540L84.1327 540L81.4189 540L78.705 540L75.9911 540L73.2321 540L70.5182 540L67.7139 540L65 540Z" fill="#D81B60"></path>
</g>
<g clip-path="url(#zr1-c1)">
<path d="M65 52.5347L67.7139 52.5122L70.2016 52.507L73.2321 52.4824L75.9911 52.5439L78.705 52.5344L81.4189 52.3545L84.1327 52.3403L86.8466 52.3289L89.5605 52.2964L92.3196 52.2128L95.0334 52.1036L97.7473 52.0971L100.4612 52.0883L103.175 52.067L105.8889 52.0538L108.648 52.0296L111.3618 52.0139L114.0757 52.0135L116.8348 52.0033L119.5487 52.0044L122.2625 51.9655L124.9764 51.9524L127.6903 51.9405L130.4041 51.9335L133.1632 51.9059L135.8771 51.8912L138.6362 51.8852L140.6264 51.8755L141.4405 51.8716L144.1091 51.927L146.823 51.9137L149.5369 51.7346L152.2507 51.7241L155.0098 51.5292L157.7237 51.5444L160.4376 51.4465L163.1514 51.4333L165.8653 51.3983L168.5791 51.3931L171.293 51.3719L174.0521 51.3659L176.8112 51.3483L179.5703 51.3582L180.3845 51.3557L182.2842 51.3368L184.9528 51.2945L187.7571 51.2836L190.5162 51.2204L193.2301 51.1127L195.9892 51.0908L198.703 51.0828L201.4169 51.004L204.1308 50.9893L206.8446 50.9891L209.6037 51.0014L212.2724 51.0004L215.0315 50.9829L217.7453 50.9805L220.4592 50.8762L222.8112 50.8462L225.4798 50.8408L228.646 50.8175L231.3599 50.783L234.0737 50.7964L236.7876 50.7925L239.5015 50.5976L242.2153 50.6036L243.8889 50.5L247.7335 50.4917L250.4926 50.4897L253.2065 50.298L255.9656 50.295L258.6794 50.2847L261.3933 50.2625L264.1524 50.2061L266.8663 50.2058L269.6254 50.1959L272.3845 50.1932L275.0983 50.1923L277.8122 50.1969L280.5261 50.1936L283.2399 50.1919L285.9538 50.1807L288.6677 50.1992L291.4268 50.1967L294.1406 50.1998L295.7237 50.199L299.5683 50.1226L302.3274 50.1194L305.0865 50.1152L307.8456 50.0046L310.5595 49.9995L313.2733 50.0136L315.9872 50.01L318.7463 49.8218L321.4602 49.8136L324.2193 49.677L326.9331 49.4748L329.6922 49.3252L332.4061 49.2281L335.1652 49.2293L337.8338 49.2079L339.1908 49.2051L343.352 49.1795L346.0659 49.1757L348.7798 49.1725L351.4936 49.091L354.2075 49.0816L356.9666 48.9965L359.6804 48.9944L362.4395 48.9933L365.1534 48.9934L367.8672 48.9852L370.6263 48.8825L373.3402 48.8812L376.0541 48.8688L378.7679 48.8688L381.527 48.8656L384.2409 48.8565L387 48.855L387 53.4493L384.2409 53.4493L381.527 53.453L378.7679 53.4519L376.0541 53.4507L373.3402 53.4507L370.6263 53.4507L367.8672 53.5558L365.1534 53.5575L362.4395 53.5589L359.6804 53.5605L356.9666 53.5624L354.2075 53.6559L351.4936 53.6559L348.7798 53.6559L346.0659 53.6544L343.352 53.6575L339.4169 53.6801L337.8338 53.6831L335.1652 53.683L332.4061 53.6837L329.6922 53.7784L326.9331 53.9172L324.2193 54.1115L321.4602 54.1202L318.7463 54.1202L315.9872 54.3072L313.2733 54.3072L310.5595 54.3072L307.8456 54.3072L305.0865 54.4007L302.3274 54.4007L299.5683 54.4007L296.0403 54.4091L294.1406 54.4091L291.4268 54.4091L288.6677 54.4107L285.9538 54.4097L283.2399 54.4097L280.5261 54.4105L277.8122 54.4105L275.0983 54.4105L272.3845 54.4105L269.6254 54.4113L266.8663 54.4113L264.1524 54.4103L261.3933 54.4953L258.6794 54.4945L255.9656 54.4986L253.2065 54.4986L250.4926 54.6861L247.7335 54.6861L244.1603 54.6872L242.2153 54.6863L239.5015 54.6854L236.7876 54.8713L234.0737 54.8729L231.3599 54.8729L228.646 54.8741L225.706 54.875L223.0826 54.8783L220.4592 54.8786L217.7453 54.9726L215.0315 54.9726L212.2724 54.9721L209.6037 54.9702L206.8446 54.9713L204.1308 54.9713L201.4169 54.9764L198.703 54.9778L195.9892 54.9766L193.2301 54.9916L190.5162 55.0845L187.7571 55.0864L184.9528 55.0864L182.2842 55.0818L180.6559 55.0855L179.5703 55.0847L176.8112 55.0847L174.0521 55.0882L171.293 55.0889L168.5791 55.0889L165.8653 55.0881L163.1514 55.0881L160.4376 55.0893L157.7237 55.1826L155.0098 55.1852L152.2507 55.3747L149.5369 55.3747L146.823 55.3782L144.1091 55.38L141.4405 55.4298L140.6264 55.428L138.6362 55.428L135.8771 55.428L133.1632 55.431L130.4041 55.431L127.6903 55.431L124.9764 55.4303L122.2625 55.4368L119.5487 55.4314L116.8348 55.4314L114.0757 55.4314L111.3618 55.431L108.648 55.4325L105.8889 55.44L103.175 55.4405L100.4612 55.4443L97.7473 55.4461L95.0334 55.4463L92.3196 55.551L89.5605 55.5525L86.8466 55.5544L84.1327 55.5631L81.4189 55.569L78.705 55.6702L75.9911 55.6728L73.2321 55.6822L70.5182 55.6874L67.7139 55.6874L65 55.6998Z" fill="#8E24AA"></path>
</g>
<g clip-path="url(#zr1-c2)">
<path d="M65 48.8291L67.7139 48.7881L70.2016 48.7829L73.2321 48.6482L75.9911 48.4596L78.705 48.4275L81.4189 48.1844L84.1327 48.1203L86.8466 47.9892L89.5605 47.8924L92.3196 47.8032L95.0334 47.6681L97.7473 47.6296L100.4612 47.515L103.175 47.4747L105.8889 47.3353L108.648 47.2831L111.3618 47.1998L114.0757 47.0578L116.8348 46.8704L119.5487 46.8393L122.2625 46.7882L124.9764 46.7442L127.6903 46.6241L130.4041 46.5964L133.1632 46.5537L135.8771 46.5154L138.6362 46.4077L140.6264 46.3845L141.4405 46.3708L144.1091 46.3887L146.823 46.3636L149.5369 46.1731L152.2507 46.0983L155.0098 45.8919L157.7237 45.9021L160.4376 45.7985L163.1514 45.775L165.8653 45.6752L168.5791 45.6112L171.293 45.5833L174.0521 45.5698L176.8112 45.5468L179.5703 45.5514L180.3845 45.5464L182.2842 45.6715L184.9528 45.725L187.7571 45.7193L190.5162 45.6845L193.2301 45.5055L195.9892 45.4663L198.703 45.4493L201.4169 45.3882L204.1308 45.3727L206.8446 45.3677L209.6037 45.3641L212.2724 45.416L215.0315 45.3875L217.7453 45.3821L220.4592 45.2657L222.8112 45.238L225.4798 45.2203L228.646 45.2485L231.3599 45.2123L234.0737 45.2253L236.7876 45.2587L239.5015 45.0585L242.2153 45.0398L243.8889 44.9437L247.7335 44.8976L250.4926 44.8928L253.2065 44.6968L255.9656 44.6938L258.6794 44.6827L261.3933 44.6645L264.1524 44.507L266.8663 44.5039L269.6254 44.496L272.3845 44.4873L275.0983 44.4771L277.8122 44.4729L280.5261 44.4885L283.2399 44.4913L285.9538 44.4462L288.6677 44.4617L291.4268 44.4895L294.1406 44.4948L295.7237 44.4914L299.5683 44.4063L302.3274 44.3695L305.0865 44.3668L307.8456 44.2509L310.5595 44.2841L313.2733 44.2949L315.9872 44.3211L318.7463 44.1319L321.4602 44.1184L324.2193 43.9786L326.9331 43.739L329.6922 43.5966L332.4061 43.5105L335.1652 43.5778L337.8338 43.5593L339.1908 43.5533L343.352 43.4807L346.0659 43.4788L348.7798 43.4631L351.4936 43.3727L354.2075 43.3619L356.9666 43.307L359.6804 43.2949L362.4395 43.2685L365.1534 43.2526L367.8672 43.2392L370.6263 43.101L373.3402 43.0871L376.0541 43.0703L378.7679 43.071L381.527 43.0645L384.2409 43.0511L387 43.0475L387 48.855L384.2409 48.8565L381.527 48.8656L378.7679 48.8688L376.0541 48.8688L373.3402 48.8812L370.6263 48.8825L367.8672 48.9852L365.1534 48.9934L362.4395 48.9933L359.6804 48.9944L356.9666 48.9965L354.2075 49.0816L351.4936 49.091L348.7798 49.1725L346.0659 49.1757L343.352 49.1795L339.4169 49.2051L337.8338 49.2079L335.1652 49.2293L332.4061 49.2281L329.6922 49.3252L326.9331 49.4748L324.2193 49.677L321.4602 49.8136L318.7463 49.8218L315.9872 50.01L313.2733 50.0136L310.5595 49.9995L307.8456 50.0046L305.0865 50.1152L302.3274 50.1194L299.5683 50.1226L296.0403 50.199L294.1406 50.1998L291.4268 50.1967L288.6677 50.1992L285.9538 50.1807L283.2399 50.1919L280.5261 50.1936L277.8122 50.1969L275.0983 50.1923L272.3845 50.1932L269.6254 50.1959L266.8663 50.2058L264.1524 50.2061L261.3933 50.2625L258.6794 50.2847L255.9656 50.295L253.2065 50.298L250.4926 50.4897L247.7335 50.4917L244.1603 50.5L242.2153 50.6036L239.5015 50.5976L236.7876 50.7925L234.0737 50.7964L231.3599 50.783L228.646 50.8175L225.706 50.8408L223.0826 50.8462L220.4592 50.8762L217.7453 50.9805L215.0315 50.9829L212.2724 51.0004L209.6037 51.0014L206.8446 50.9891L204.1308 50.9893L201.4169 51.004L198.703 51.0828L195.9892 51.0908L193.2301 51.1127L190.5162 51.2204L187.7571 51.2836L184.9528 51.2945L182.2842 51.3368L180.6559 51.3573L179.5703 51.3582L176.8112 51.3483L174.0521 51.3659L171.293 51.3719L168.5791 51.3931L165.8653 51.3983L163.1514 51.4333L160.4376 51.4465L157.7237 51.5444L155.0098 51.5292L152.2507 51.7241L149.5369 51.7346L146.823 51.9137L144.1091 51.927L141.4405 51.8716L140.6264 51.8755L138.6362 51.8852L135.8771 51.8912L133.1632 51.9059L130.4041 51.9335L127.6903 51.9405L124.9764 51.9524L122.2625 51.9655L119.5487 52.0044L116.8348 52.0033L114.0757 52.0135L111.3618 52.0139L108.648 52.0296L105.8889 52.0538L103.175 52.067L100.4612 52.0883L97.7473 52.0971L95.0334 52.1036L92.3196 52.2128L89.5605 52.2964L86.8466 52.3289L84.1327 52.3403L81.4189 52.3545L78.705 52.5344L75.9911 52.5439L73.2321 52.4824L70.5182 52.507L67.7139 52.5122L65 52.5347Z" fill="#5E35B1"></path>
</g>
<g clip-path="url(#zr1-c3)">
<path d="M65 46.0939L67.7139 46.0395L70.2016 46.028L73.2321 45.854L75.9911 45.6325L78.705 45.5269L81.4189 45.1142L84.1327 45.0588L86.8466 44.8585L89.5605 44.7205L92.3196 44.5388L95.0334 44.3957L97.7473 44.2965L100.4612 44.1806L103.175 44.0966L105.8889 43.6877L108.648 43.6099L111.3618 43.5099L114.0757 43.3411L116.8348 43.1485L119.5487 43.1058L122.2625 43.0501L124.9764 42.9896L127.6903 42.8746L130.4041 42.7966L133.1632 42.7349L135.8771 42.6458L138.6362 42.4974L140.6264 42.4712L141.4405 42.4557L144.1091 42.4437L146.823 41.9102L149.5369 41.7445L152.2507 41.5251L155.0098 41.3483L157.7237 41.3289L160.4376 41.1634L163.1514 41.1844L165.8653 40.9799L168.5791 40.8952L171.293 40.8268L174.0521 40.8044L176.8112 40.6463L179.5703 40.6292L180.3845 40.625L182.2842 40.7376L184.9528 40.772L187.7571 40.824L190.5162 40.7616L193.2301 40.5987L195.9892 40.5467L198.703 40.5121L201.4169 40.4055L204.1308 40.0496L206.8446 40.0385L209.6037 40.0304L212.2724 40.0729L215.0315 40.042L217.7453 40.113L220.4592 39.9903L222.8112 39.9205L225.4798 39.8254L228.646 40.3574L231.3599 40.2925L234.0737 40.2083L236.7876 40.1926L239.5015 39.7632L242.2153 39.6929L243.8889 39.5453L244.1603 42.3696L247.7335 42.1468L250.4926 42.084L253.2065 41.8002L255.9656 41.7785L258.6794 41.7222L261.3933 41.6786L264.1524 41.5205L266.8663 41.4965L269.6254 41.4702L272.3845 41.446L275.0983 41.409L277.8122 41.3711L280.5261 41.3343L283.2399 41.357L285.9538 41.3006L288.6677 41.2594L291.4268 41.279L294.1406 41.2713L295.7237 41.2606L299.5683 41.1465L302.3274 41.0609L305.0865 41.007L307.8456 40.8296L310.5595 40.8381L313.2733 40.8561L315.9872 40.893L318.7463 40.687L321.4602 40.6285L324.2193 40.4369L326.9331 40.1844L329.6922 39.9732L332.4061 39.8955L335.1652 39.8526L337.8338 39.9141L339.1908 39.8672L339.4169 40.7511L343.352 40.5705L346.0659 40.5075L348.7798 40.4372L351.4936 40.2814L354.2075 40.2608L356.9666 40.1179L359.6804 40.1107L362.4395 40.0831L365.1534 40.0499L367.8672 40.0205L370.6263 39.7983L373.3402 39.7212L376.0541 39.682L378.7679 39.7345L381.527 39.672L384.2409 39.6196L387 39.5787L387 43.0475L384.2409 43.0511L381.527 43.0645L378.7679 43.071L376.0541 43.0703L373.3402 43.0871L370.6263 43.101L367.8672 43.2392L365.1534 43.2526L362.4395 43.2685L359.6804 43.2949L356.9666 43.307L354.2075 43.3619L351.4936 43.3727L348.7798 43.4631L346.0659 43.4788L343.352 43.4807L339.4169 43.5533L337.8338 43.5593L335.1652 43.5778L332.4061 43.5105L329.6922 43.5966L326.9331 43.739L324.2193 43.9786L321.4602 44.1184L318.7463 44.1319L315.9872 44.3211L313.2733 44.2949L310.5595 44.2841L307.8456 44.2509L305.0865 44.3668L302.3274 44.3695L299.5683 44.4063L296.0403 44.4914L294.1406 44.4948L291.4268 44.4895L288.6677 44.4617L285.9538 44.4462L283.2399 44.4913L280.5261 44.4885L277.8122 44.4729L275.0983 44.4771L272.3845 44.4873L269.6254 44.496L266.8663 44.5039L264.1524 44.507L261.3933 44.6645L258.6794 44.6827L255.9656 44.6938L253.2065 44.6968L250.4926 44.8928L247.7335 44.8976L244.1603 44.9437L242.2153 45.0398L239.5015 45.0585L236.7876 45.2587L234.0737 45.2253L231.3599 45.2123L228.646 45.2485L225.706 45.2203L223.0826 45.238L220.4592 45.2657L217.7453 45.3821L215.0315 45.3875L212.2724 45.416L209.6037 45.3641L206.8446 45.3677L204.1308 45.3727L201.4169 45.3882L198.703 45.4493L195.9892 45.4663L193.2301 45.5055L190.5162 45.6845L187.7571 45.7193L184.9528 45.725L182.2842 45.6715L180.6559 45.6932L179.5703 45.5514L176.8112 45.5468L174.0521 45.5698L171.293 45.5833L168.5791 45.6112L165.8653 45.6752L163.1514 45.775L160.4376 45.7985L157.7237 45.9021L155.0098 45.8919L152.2507 46.0983L149.5369 46.1731L146.823 46.3636L144.1091 46.3887L141.4405 46.3708L140.6264 46.3845L138.6362 46.4077L135.8771 46.5154L133.1632 46.5537L130.4041 46.5964L127.6903 46.6241L124.9764 46.7442L122.2625 46.7882L119.5487 46.8393L116.8348 46.8704L114.0757 47.0578L111.3618 47.1998L108.648 47.2831L105.8889 47.3353L103.175 47.4747L100.4612 47.515L97.7473 47.6296L95.0334 47.6681L92.3196 47.8032L89.5605 47.8924L86.8466 47.9892L84.1327 48.1203L81.4189 48.1844L78.705 48.4275L75.9911 48.4596L73.2321 48.6482L70.5182 48.7829L67.7139 48.7881L65 48.8291Z" fill="#3949AB"></path>
</g>
<g clip-path="url(#zr1-c4)">
<path d="M65 43.7261L67.7139 43.6658L70.2016 43.5918L73.2321 43.8543L75.9911 43.5653L78.705 43.3759L81.4189 42.8221L84.1327 42.6755L86.8466 42.4243L89.5605 42.1395L92.3196 41.9177L95.0334 41.7049L97.7473 41.5814L100.4612 41.4061L103.175 41.2653L105.8889 40.8662L108.648 40.6929L111.3618 40.5837L114.0757 40.3867L116.8348 40.2412L119.5487 40.1285L122.2625 40.0757L124.9764 39.9554L127.6903 39.8389L130.4041 39.7016L133.1632 39.6506L135.8771 39.0531L138.6362 38.8652L140.6264 38.7728L140.8977 40.2756L144.1091 39.6476L146.823 38.7288L149.5369 38.5009L152.2507 38.2472L155.0098 37.9569L157.7237 37.8549L160.4376 37.6782L163.1514 37.5926L165.8653 37.3026L168.5791 37.1466L171.293 37.0424L174.0521 36.9521L176.8112 36.7619L179.5703 36.7145L180.3845 36.6806L180.6559 38.4469L182.2842 38.395L184.9528 38.3511L187.7571 38.0129L190.5162 37.7912L193.2301 37.4743L195.9892 37.3174L198.703 37.2423L201.4169 37.0648L204.1308 36.2643L206.8446 36.1708L209.6037 36.1669L212.2724 36.2803L215.0315 36.2421L217.7453 36.0885L220.4592 35.8597L222.8112 35.7826L225.4798 35.6726L225.706 40.3691L228.646 40.1976L231.3599 39.4939L234.0737 39.3086L236.7876 39.1483L239.5015 38.6148L242.2153 38.4558L243.8889 38.2514L244.1603 42.3189L247.7335 41.7608L250.4926 41.5549L253.2065 41.1384L255.9656 41.0292L258.6794 40.8727L261.3933 40.7476L264.1524 40.263L266.8663 40.1764L269.6254 40.0154L272.3845 39.8931L275.0983 39.6825L277.8122 39.5863L280.5261 39.4683L283.2399 39.2672L285.9538 39.1764L288.6677 39.1432L291.4268 39.1178L294.1406 39.1394L295.7237 39.0139L296.0403 41.1786L299.5683 40.8732L302.3274 40.6294L305.0865 40.482L307.8456 40.2182L310.5595 40.1198L313.2733 39.9742L315.9872 39.872L318.7463 39.5182L321.4602 39.3784L324.2193 39.0864L326.9331 38.704L329.6922 38.3546L332.4061 38.1033L335.1652 38.0236L337.8338 37.9439L339.1908 37.893L339.4169 40.7339L343.352 40.396L346.0659 40.2603L348.7798 40.1166L351.4936 39.839L354.2075 39.6944L356.9666 39.3887L359.6804 39.2592L362.4395 39.0258L365.1534 38.188L367.8672 38.0512L370.6263 37.7255L373.3402 37.6325L376.0541 37.5222L378.7679 37.4101L381.527 37.3768L384.2409 37.2008L387 37.0938L387 39.5787L384.2409 39.6196L381.527 39.672L378.7679 39.7345L376.0541 39.682L373.3402 39.7212L370.6263 39.7983L367.8672 40.0205L365.1534 40.0499L362.4395 40.0831L359.6804 40.1107L356.9666 40.1179L354.2075 40.2608L351.4936 40.2814L348.7798 40.4372L346.0659 40.5075L343.352 40.5705L339.4169 40.7511L339.1908 39.8672L337.8338 39.9141L335.1652 39.8526L332.4061 39.8955L329.6922 39.9732L326.9331 40.1844L324.2193 40.4369L321.4602 40.6285L318.7463 40.687L315.9872 40.893L313.2733 40.8561L310.5595 40.8381L307.8456 40.8296L305.0865 41.007L302.3274 41.0609L299.5683 41.1465L296.0403 41.2606L294.1406 41.2713L291.4268 41.279L288.6677 41.2594L285.9538 41.3006L283.2399 41.357L280.5261 41.3343L277.8122 41.3711L275.0983 41.409L272.3845 41.446L269.6254 41.4702L266.8663 41.4965L264.1524 41.5205L261.3933 41.6786L258.6794 41.7222L255.9656 41.7785L253.2065 41.8002L250.4926 42.084L247.7335 42.1468L244.1603 42.3696L243.8889 39.5453L242.2153 39.6929L239.5015 39.7632L236.7876 40.1926L234.0737 40.2083L231.3599 40.2925L228.646 40.3574L225.706 40.3961L223.0826 39.9212L220.4592 39.9903L217.7453 40.113L215.0315 40.042L212.2724 40.0729L209.6037 40.0304L206.8446 40.0385L204.1308 40.0496L201.4169 40.4055L198.703 40.5121L195.9892 40.5467L193.2301 40.5987L190.5162 40.7616L187.7571 40.824L184.9528 40.772L182.2842 40.7376L180.6559 40.7724L179.5703 40.6292L176.8112 40.6463L174.0521 40.8044L171.293 40.8268L168.5791 40.8952L165.8653 40.9799L163.1514 41.1844L160.4376 41.1634L157.7237 41.3289L155.0098 41.3483L152.2507 41.5251L149.5369 41.7445L146.823 41.9102L144.1091 42.4437L141.4405 42.4557L140.6264 42.4712L138.6362 42.4974L135.8771 42.6458L133.1632 42.7349L130.4041 42.7966L127.6903 42.8746L124.9764 42.9896L122.2625 43.0501L119.5487 43.1058L116.8348 43.1485L114.0757 43.3411L111.3618 43.5099L108.648 43.6099L105.8889 43.6877L103.175 44.0966L100.4612 44.1806L97.7473 44.2965L95.0334 44.3957L92.3196 44.5388L89.5605 44.7205L86.8466 44.8585L84.1327 45.0588L81.4189 45.1142L78.705 45.5269L75.9911 45.6325L73.2321 45.854L70.5182 46.028L67.7139 46.0395L65 46.0939Z" fill="#1E88E5"></path>
</g>
<g clip-path="url(#zr1-c5)">
<path d="M65 41.1037L67.7139 40.9835L70.2016 40.8596L70.5182 44.0462L73.2321 43.7332L75.9911 43.4068L78.705 43.1878L81.4189 42.5677L84.1327 42.3422L86.8466 42.0153L89.5605 41.6755L92.3196 41.377L95.0334 41.1117L97.7473 40.9183L100.4612 40.6994L103.175 40.4787L105.8889 39.975L108.648 39.6921L111.3618 39.4705L114.0757 39.1139L116.8348 38.7777L119.5487 38.5805L122.2625 38.3946L124.9764 38.1981L127.6903 37.9777L130.4041 37.7651L133.1632 37.5892L135.8771 36.9078L138.6362 36.6343L140.6264 36.4649L140.8977 40.2116L144.1091 39.4507L146.823 38.3375L149.5369 37.9391L152.2507 37.5022L155.0098 37.0919L157.7237 36.8421L160.4376 36.4878L163.1514 36.2516L165.8653 35.834L168.5791 35.5513L171.293 35.3111L174.0521 35.0983L176.8112 34.7772L179.5703 34.4234L180.3845 34.2469L180.6559 38.4417L182.2842 38.1579L184.9528 37.8303L187.7571 37.3773L190.5162 37.0084L193.2301 36.4359L195.9892 36.1016L198.703 35.4441L201.4169 35.0921L204.1308 34.1752L206.8446 33.9403L209.6037 33.8287L212.2724 33.6569L215.0315 33.5375L217.7453 33.2697L220.4592 32.9098L222.8112 32.7457L223.0826 35.3802L225.4798 35.1915L225.706 40.3131L228.646 39.9556L231.3599 39.1795L234.0737 38.9346L236.7876 38.6837L239.5015 38.1063L242.2153 37.8954L243.8889 37.6784L244.1603 42.3081L247.7335 41.6249L250.4926 41.322L253.2065 40.8181L255.9656 40.6715L258.6794 40.4614L261.3933 40.2529L264.1524 39.7097L266.8663 39.5561L269.6254 39.3262L272.3845 38.9983L275.0983 38.7082L277.8122 38.5342L280.5261 38.3149L283.2399 38.0272L285.9538 37.7934L288.6677 37.6019L291.4268 37.3785L294.1406 37.2564L295.7237 37.1405L296.0403 41.1779L299.5683 40.732L302.3274 40.3956L305.0865 40.1468L307.8456 39.8308L310.5595 39.6738L313.2733 39.4466L315.9872 39.2321L318.7463 38.8275L321.4602 38.6432L324.2193 38.2937L326.9331 37.8357L329.6922 37.377L332.4061 37.037L335.1652 36.8424L337.8338 36.5465L339.1908 36.4596L339.4169 40.6991L343.352 40.2507L346.0659 40.0579L348.7798 39.8006L351.4936 39.4666L354.2075 39.255L356.9666 38.8619L359.6804 38.683L362.4395 38.4079L365.1534 37.5258L367.8672 37.282L370.6263 36.8499L373.3402 36.647L376.0541 36.4486L378.7679 36.2071L381.527 35.9544L384.2409 35.6629L387 35.481L387 37.0938L384.2409 37.2008L381.527 37.3768L378.7679 37.4101L376.0541 37.5222L373.3402 37.6325L370.6263 37.7255L367.8672 38.0512L365.1534 38.188L362.4395 39.0258L359.6804 39.2592L356.9666 39.3887L354.2075 39.6944L351.4936 39.839L348.7798 40.1166L346.0659 40.2603L343.352 40.396L339.4169 40.7339L339.1908 37.893L337.8338 37.9439L335.1652 38.0236L332.4061 38.1033L329.6922 38.3546L326.9331 38.704L324.2193 39.0864L321.4602 39.3784L318.7463 39.5182L315.9872 39.872L313.2733 39.9742L310.5595 40.1198L307.8456 40.2182L305.0865 40.482L302.3274 40.6294L299.5683 40.8732L296.0403 41.1786L295.7237 39.0139L294.1406 39.1394L291.4268 39.1178L288.6677 39.1432L285.9538 39.1764L283.2399 39.2672L280.5261 39.4683L277.8122 39.5863L275.0983 39.6825L272.3845 39.8931L269.6254 40.0154L266.8663 40.1764L264.1524 40.263L261.3933 40.7476L258.6794 40.8727L255.9656 41.0292L253.2065 41.1384L250.4926 41.5549L247.7335 41.7608L244.1603 42.3189L243.8889 38.2514L242.2153 38.4558L239.5015 38.6148L236.7876 39.1483L234.0737 39.3086L231.3599 39.4939L228.646 40.1976L225.706 40.3691L225.4798 35.6726L223.0826 35.7833L220.4592 35.8597L217.7453 36.0885L215.0315 36.2421L212.2724 36.2803L209.6037 36.1669L206.8446 36.1708L204.1308 36.2643L201.4169 37.0648L198.703 37.2423L195.9892 37.3174L193.2301 37.4743L190.5162 37.7912L187.7571 38.0129L184.9528 38.3511L182.2842 38.395L180.6559 38.4469L180.3845 36.6806L179.5703 36.7145L176.8112 36.7619L174.0521 36.9521L171.293 37.0424L168.5791 37.1466L165.8653 37.3026L163.1514 37.5926L160.4376 37.6782L157.7237 37.8549L155.0098 37.9569L152.2507 38.2472L149.5369 38.5009L146.823 38.7288L144.1091 39.6476L141.4405 40.2528L140.6264 38.7728L138.6362 38.8652L135.8771 39.0531L133.1632 39.6506L130.4041 39.7016L127.6903 39.8389L124.9764 39.9554L122.2625 40.0757L119.5487 40.1285L116.8348 40.2412L114.0757 40.3867L111.3618 40.5837L108.648 40.6929L105.8889 40.8662L103.175 41.2653L100.4612 41.4061L97.7473 41.5814L95.0334 41.7049L92.3196 41.9177L89.5605 42.1395L86.8466 42.4243L84.1327 42.6755L81.4189 42.8221L78.705 43.3759L75.9911 43.5653L73.2321 43.8543L70.5182 44.0527L67.7139 43.6658L65 43.7261Z" fill="#039BE5"></path>
</g>
<g clip-path="url(#zr1-c6)">
<path d="M65 40.5222L67.7139 40.3685L70.2016 40.195L70.5182 43.9762L73.2321 43.609L75.9911 43.267L78.705 43.0411L81.4189 42.3997L84.1327 42.1637L86.8466 41.826L89.5605 41.4576L92.3196 41.1496L95.0334 40.855L97.7473 40.6576L100.4612 40.4336L103.175 40.2057L105.8889 39.6963L108.648 39.3759L111.3618 39.1417L114.0757 38.7782L116.8348 38.4337L119.5487 38.2295L122.2625 38.0226L124.9764 37.8076L127.6903 37.5513L130.4041 37.3244L133.1632 37.1302L135.8771 36.4234L138.6362 36.117L140.6264 35.9701L140.8977 40.1973L144.1091 39.3904L146.823 38.2641L149.5369 37.8343L152.2507 37.3832L155.0098 36.9414L157.7237 36.6796L160.4376 36.3012L163.1514 36.0422L165.8653 35.6034L168.5791 35.3004L171.293 35.0464L174.0521 34.8207L176.8112 34.4925L179.5703 34.1042L180.3845 33.9451L180.6559 38.441L182.2842 38.1425L184.9528 37.7796L187.7571 37.3175L190.5162 36.929L193.2301 36.3462L195.9892 35.988L198.703 35.3133L201.4169 34.9471L204.1308 34.0127L206.8446 33.7459L209.6037 33.6054L212.2724 33.3886L215.0315 33.2164L217.7453 32.9278L220.4592 32.3641L222.8112 32.1432L223.0826 35.3802L225.4798 35.138L225.706 40.2965L228.646 39.9031L231.3599 39.1027L234.0737 38.8284L236.7876 38.5392L239.5015 37.9274L242.2153 37.6946L243.8889 37.4634L244.1603 42.302L247.7335 41.5733L250.4926 41.2488L253.2065 40.7218L255.9656 40.5454L258.6794 40.3159L261.3933 40.0928L264.1524 39.5389L266.8663 39.363L269.6254 39.1098L272.3845 38.7671L275.0983 38.4629L277.8122 38.2619L280.5261 38.0335L283.2399 37.7313L285.9538 37.4712L288.6677 37.2576L291.4268 36.9916L294.1406 36.815L295.7237 36.6951L296.0403 41.1772L299.5683 40.6778L302.3274 40.3162L305.0865 40.0479L307.8456 39.6994L310.5595 39.4847L313.2733 39.245L315.9872 39.0204L318.7463 38.6002L321.4602 38.3989L324.2193 38.0096L326.9331 37.528L329.6922 37.0544L332.4061 36.6782L335.1652 36.433L337.8338 36.1184L339.1908 36.0252L339.4169 40.6893L343.352 40.2082L346.0659 39.9943L348.7798 39.714L351.4936 39.352L354.2075 39.1183L356.9666 38.7143L359.6804 38.5057L362.4395 38.213L365.1534 37.3068L367.8672 37.0473L370.6263 36.5965L373.3402 36.367L376.0541 36.161L378.7679 35.9028L381.527 35.6346L384.2409 35.3303L387 35.1372L387 35.481L384.2409 35.6629L381.527 35.9544L378.7679 36.2071L376.0541 36.4486L373.3402 36.647L370.6263 36.8499L367.8672 37.282L365.1534 37.5258L362.4395 38.4079L359.6804 38.683L356.9666 38.8619L354.2075 39.255L351.4936 39.4666L348.7798 39.8006L346.0659 40.0579L343.352 40.2507L339.4169 40.6991L339.1908 36.4596L337.8338 36.5465L335.1652 36.8424L332.4061 37.037L329.6922 37.377L326.9331 37.8357L324.2193 38.2937L321.4602 38.6432L318.7463 38.8275L315.9872 39.2321L313.2733 39.4466L310.5595 39.6738L307.8456 39.8308L305.0865 40.1468L302.3274 40.3956L299.5683 40.732L296.0403 41.1779L295.7237 37.1405L294.1406 37.2564L291.4268 37.3785L288.6677 37.6019L285.9538 37.7934L283.2399 38.0272L280.5261 38.3149L277.8122 38.5342L275.0983 38.7082L272.3845 38.9983L269.6254 39.3262L266.8663 39.5561L264.1524 39.7097L261.3933 40.2529L258.6794 40.4614L255.9656 40.6715L253.2065 40.8181L250.4926 41.322L247.7335 41.6249L244.1603 42.3081L243.8889 37.6784L242.2153 37.8954L239.5015 38.1063L236.7876 38.6837L234.0737 38.9346L231.3599 39.1795L228.646 39.9556L225.706 40.3131L225.4798 35.1915L223.0826 35.3802L222.8112 32.7457L220.4592 32.9098L217.7453 33.2697L215.0315 33.5375L212.2724 33.6569L209.6037 33.8287L206.8446 33.9403L204.1308 34.1752L201.4169 35.0921L198.703 35.4441L195.9892 36.1016L193.2301 36.4359L190.5162 37.0084L187.7571 37.3773L184.9528 37.8303L182.2842 38.1579L180.6559 38.4417L180.3845 34.2469L179.5703 34.4234L176.8112 34.7772L174.0521 35.0983L171.293 35.3111L168.5791 35.5513L165.8653 35.834L163.1514 36.2516L160.4376 36.4878L157.7237 36.8421L155.0098 37.0919L152.2507 37.5022L149.5369 37.9391L146.823 38.3375L144.1091 39.4507L141.4405 40.1776L140.6264 36.4649L138.6362 36.6343L135.8771 36.9078L133.1632 37.5892L130.4041 37.7651L127.6903 37.9777L124.9764 38.1981L122.2625 38.3946L119.5487 38.5805L116.8348 38.7777L114.0757 39.1139L111.3618 39.4705L108.648 39.6921L105.8889 39.975L103.175 40.4787L100.4612 40.6994L97.7473 40.9183L95.0334 41.1117L92.3196 41.377L89.5605 41.6755L86.8466 42.0153L84.1327 42.3422L81.4189 42.5677L78.705 43.1878L75.9911 43.4068L73.2321 43.7332L70.5182 44.0462L70.2016 40.8596L67.7139 40.9835L65 41.1037Z" fill="#00ACC1"></path>
</g>
<g clip-path="url(#zr1-c7)">
<path d="M65 40.074L67.7139 39.9107L70.2016 39.7207L70.5182 43.9746L73.2321 43.5992L75.9911 43.2413L78.705 43.01L81.4189 42.3475L84.1327 42.1064L86.8466 41.7575L89.5605 41.379L92.3196 41.0568L95.0334 40.7488L97.7473 40.5388L100.4612 40.3047L103.175 40.0742L105.8889 39.5582L108.648 39.2211L111.3618 38.9726L114.0757 38.5954L116.8348 38.239L119.5487 38.0232L122.2625 37.8081L124.9764 37.5825L127.6903 37.321L130.4041 37.0806L133.1632 36.8724L135.8771 36.1533L138.6362 35.8441L140.6264 35.6922L140.8977 40.1876L144.1091 39.3653L146.823 38.228L149.5369 37.7819L152.2507 37.3178L155.0098 36.862L157.7237 36.5933L160.4376 36.1918L163.1514 35.8938L165.8653 35.4361L168.5791 35.1191L171.293 34.8568L174.0521 34.6216L176.8112 34.2878L179.5703 33.8735L180.3845 33.7072L180.6559 38.4372L182.2842 38.1343L184.9528 37.757L187.7571 37.2871L190.5162 36.8778L193.2301 36.2802L195.9892 35.9083L198.703 35.2224L201.4169 34.8535L204.1308 33.896L206.8446 33.6175L209.6037 33.4626L212.2724 33.2359L215.0315 33.0489L217.7453 32.7163L220.4592 32.146L222.8112 31.9169L223.0826 35.3793L225.4798 35.1145L225.706 40.2795L228.646 39.8735L231.3599 39.0621L234.0737 38.7793L236.7876 38.4801L239.5015 37.8629L242.2153 37.6151L243.8889 37.3825L244.1603 42.3004L247.7335 41.5408L250.4926 41.2042L253.2065 40.6721L255.9656 40.4766L258.6794 40.2242L261.3933 39.991L264.1524 39.4285L266.8663 39.2483L269.6254 38.9723L272.3845 38.6222L275.0983 38.296L277.8122 38.089L280.5261 37.8475L283.2399 37.5396L285.9538 37.2674L288.6677 37.0462L291.4268 36.7685L294.1406 36.5841L295.7237 36.4583L296.0403 41.1763L299.5683 40.6487L302.3274 40.2759L305.0865 40.0005L307.8456 39.6378L310.5595 39.4016L313.2733 39.152L315.9872 38.9186L318.7463 38.4864L321.4602 38.2629L324.2193 37.868L326.9331 37.3719L329.6922 36.8909L332.4061 36.5061L335.1652 36.2518L337.8338 35.9255L339.1908 35.8285L339.4169 40.6866L343.352 40.1923L346.0659 39.9652L348.7798 39.6733L351.4936 39.2963L354.2075 39.0383L356.9666 38.6229L359.6804 38.4041L362.4395 38.0954L365.1534 37.1803L367.8672 36.8982L370.6263 36.4396L373.3402 36.2012L376.0541 35.9918L378.7679 35.7184L381.527 35.4429L384.2409 35.1281L387 34.9267L387 35.1372L384.2409 35.3303L381.527 35.6346L378.7679 35.9028L376.0541 36.161L373.3402 36.367L370.6263 36.5965L367.8672 37.0473L365.1534 37.3068L362.4395 38.213L359.6804 38.5057L356.9666 38.7143L354.2075 39.1183L351.4936 39.352L348.7798 39.714L346.0659 39.9943L343.352 40.2082L339.4169 40.6893L339.1908 36.0252L337.8338 36.1184L335.1652 36.433L332.4061 36.6782L329.6922 37.0544L326.9331 37.528L324.2193 38.0096L321.4602 38.3989L318.7463 38.6002L315.9872 39.0204L313.2733 39.245L310.5595 39.4847L307.8456 39.6994L305.0865 40.0479L302.3274 40.3162L299.5683 40.6778L296.0403 41.1772L295.7237 36.6951L294.1406 36.815L291.4268 36.9916L288.6677 37.2576L285.9538 37.4712L283.2399 37.7313L280.5261 38.0335L277.8122 38.2619L275.0983 38.4629L272.3845 38.7671L269.6254 39.1098L266.8663 39.363L264.1524 39.5389L261.3933 40.0928L258.6794 40.3159L255.9656 40.5454L253.2065 40.7218L250.4926 41.2488L247.7335 41.5733L244.1603 42.302L243.8889 37.4634L242.2153 37.6946L239.5015 37.9274L236.7876 38.5392L234.0737 38.8284L231.3599 39.1027L228.646 39.9031L225.706 40.2965L225.4798 35.138L223.0826 35.3802L222.8112 32.1432L220.4592 32.3641L217.7453 32.9278L215.0315 33.2164L212.2724 33.3886L209.6037 33.6054L206.8446 33.7459L204.1308 34.0127L201.4169 34.9471L198.703 35.3133L195.9892 35.988L193.2301 36.3462L190.5162 36.929L187.7571 37.3175L184.9528 37.7796L182.2842 38.1425L180.6559 38.441L180.3845 33.9451L179.5703 34.1042L176.8112 34.4925L174.0521 34.8207L171.293 35.0464L168.5791 35.3004L165.8653 35.6034L163.1514 36.0422L160.4376 36.3012L157.7237 36.6796L155.0098 36.9414L152.2507 37.3832L149.5369 37.8343L146.823 38.2641L144.1091 39.3904L141.4405 40.1584L140.6264 35.9701L138.6362 36.117L135.8771 36.4234L133.1632 37.1302L130.4041 37.3244L127.6903 37.5513L124.9764 37.8076L122.2625 38.0226L119.5487 38.2295L116.8348 38.4337L114.0757 38.7782L111.3618 39.1417L108.648 39.3759L105.8889 39.6963L103.175 40.2057L100.4612 40.4336L97.7473 40.6576L95.0334 40.855L92.3196 41.1496L89.5605 41.4576L86.8466 41.826L84.1327 42.1637L81.4189 42.3997L78.705 43.0411L75.9911 43.267L73.2321 43.609L70.5182 43.9762L70.2016 40.195L67.7139 40.3685L65 40.5222Z" fill="#00897B"></path>
</g>
<g clip-path="url(#zr1-c8)">
<path d="M65 39.8611L67.7139 39.6939L70.2016 39.5081L70.5182 43.9698L73.2321 43.5676L75.9911 43.2071L78.705 42.9705L81.4189 42.3057L84.1327 42.0609L86.8466 41.7052L89.5605 41.3193L92.3196 40.9944L95.0334 40.6828L97.7473 40.4691L100.4612 40.2301L103.175 39.9884L105.8889 39.4655L108.648 39.123L111.3618 38.8705L114.0757 38.488L116.8348 38.1251L119.5487 37.9061L122.2625 37.684L124.9764 37.4534L127.6903 37.1874L130.4041 36.9387L133.1632 36.7277L135.8771 36.0038L138.6362 35.6948L140.6264 35.5388L140.8977 40.1838L144.1091 39.3433L146.823 38.206L149.5369 37.7462L152.2507 37.2707L155.0098 36.8001L157.7237 36.5189L160.4376 36.1143L163.1514 35.8134L165.8653 35.3499L168.5791 35.0346L171.293 34.7689L174.0521 34.5332L176.8112 34.1983L179.5703 33.7768L180.3845 33.6126L180.6559 38.4372L182.2842 38.1278L184.9528 37.7364L187.7571 37.2659L190.5162 36.8508L193.2301 36.208L195.9892 35.8307L198.703 35.1428L201.4169 34.7642L204.1308 33.7679L206.8446 33.4875L209.6037 33.3257L212.2724 33.0948L215.0315 32.9028L217.7453 32.588L220.4592 32.0092L222.8112 31.7814L223.0826 35.3793L225.4798 35.1041L225.706 40.2763L228.646 39.854L231.3599 39.0413L234.0737 38.7562L236.7876 38.4558L239.5015 37.8289L242.2153 37.5706L243.8889 37.3345L244.1603 42.2974L247.7335 41.5335L250.4926 41.1925L253.2065 40.6591L255.9656 40.4563L258.6794 40.2022L261.3933 39.9639L264.1524 39.4015L266.8663 39.2108L269.6254 38.9281L272.3845 38.5742L275.0983 38.246L277.8122 38.0399L280.5261 37.7925L283.2399 37.4801L285.9538 37.2078L288.6677 36.9867L291.4268 36.7065L294.1406 36.5221L295.7237 36.3967L296.0403 41.1748L299.5683 40.6404L302.3274 40.2617L305.0865 39.9832L307.8456 39.6181L310.5595 39.3763L313.2733 39.1249L315.9872 38.8847L318.7463 38.4483L321.4602 38.2229L324.2193 37.8232L326.9331 37.3264L329.6922 36.8418L332.4061 36.4507L335.1652 36.1963L337.8338 35.8657L339.1908 35.7676L339.4169 40.6852L343.352 40.1883L346.0659 39.9611L348.7798 39.6634L351.4936 39.2777L354.2075 39.0147L356.9666 38.5961L359.6804 38.3792L362.4395 38.0623L365.1534 37.1447L367.8672 36.8574L370.6263 36.3987L373.3402 36.1538L376.0541 35.9435L378.7679 35.663L381.527 35.3823L384.2409 35.0621L387 34.8588L387 34.9267L384.2409 35.1281L381.527 35.4429L378.7679 35.7184L376.0541 35.9918L373.3402 36.2012L370.6263 36.4396L367.8672 36.8982L365.1534 37.1803L362.4395 38.0954L359.6804 38.4041L356.9666 38.6229L354.2075 39.0383L351.4936 39.2963L348.7798 39.6733L346.0659 39.9652L343.352 40.1923L339.4169 40.6866L339.1908 35.8285L337.8338 35.9255L335.1652 36.2518L332.4061 36.5061L329.6922 36.8909L326.9331 37.3719L324.2193 37.868L321.4602 38.2629L318.7463 38.4864L315.9872 38.9186L313.2733 39.152L310.5595 39.4016L307.8456 39.6378L305.0865 40.0005L302.3274 40.2759L299.5683 40.6487L296.0403 41.1763L295.7237 36.4583L294.1406 36.5841L291.4268 36.7685L288.6677 37.0462L285.9538 37.2674L283.2399 37.5396L280.5261 37.8475L277.8122 38.089L275.0983 38.296L272.3845 38.6222L269.6254 38.9723L266.8663 39.2483L264.1524 39.4285L261.3933 39.991L258.6794 40.2242L255.9656 40.4766L253.2065 40.6721L250.4926 41.2042L247.7335 41.5408L244.1603 42.3004L243.8889 37.3825L242.2153 37.6151L239.5015 37.8629L236.7876 38.4801L234.0737 38.7793L231.3599 39.0621L228.646 39.8735L225.706 40.2795L225.4798 35.1145L223.0826 35.3793L222.8112 31.9169L220.4592 32.146L217.7453 32.7163L215.0315 33.0489L212.2724 33.2359L209.6037 33.4626L206.8446 33.6175L204.1308 33.896L201.4169 34.8535L198.703 35.2224L195.9892 35.9083L193.2301 36.2802L190.5162 36.8778L187.7571 37.2871L184.9528 37.757L182.2842 38.1343L180.6559 38.4372L180.3845 33.7072L179.5703 33.8735L176.8112 34.2878L174.0521 34.6216L171.293 34.8568L168.5791 35.1191L165.8653 35.4361L163.1514 35.8938L160.4376 36.1918L157.7237 36.5933L155.0098 36.862L152.2507 37.3178L149.5369 37.7819L146.823 38.228L144.1091 39.3653L141.4405 40.1476L140.6264 35.6922L138.6362 35.8441L135.8771 36.1533L133.1632 36.8724L130.4041 37.0806L127.6903 37.321L124.9764 37.5825L122.2625 37.8081L119.5487 38.0232L116.8348 38.239L114.0757 38.5954L111.3618 38.9726L108.648 39.2211L105.8889 39.5582L103.175 40.0742L100.4612 40.3047L97.7473 40.5388L95.0334 40.7488L92.3196 41.0568L89.5605 41.379L86.8466 41.7575L84.1327 42.1064L81.4189 42.3475L78.705 43.01L75.9911 43.2413L73.2321 43.5992L70.5182 43.9746L70.2016 39.7207L67.7139 39.9107L65 40.074Z" fill="#43A047"></path>
</g>
<g clip-path="url(#zr1-c9)">
<path d="M65 39.6821L67.7139 39.5144L70.2016 39.3286L70.5182 43.9698L73.2321 43.5536L75.9911 43.1933L78.705 42.9499L81.4189 42.2782L84.1327 42.0297L86.8466 41.6692L89.5605 41.2807L92.3196 40.952L95.0334 40.6357L97.7473 40.4135L100.4612 40.1685L103.175 39.9261L105.8889 39.3992L108.648 39.0463L111.3618 38.7921L114.0757 38.4057L116.8348 38.0367L119.5487 37.8103L122.2625 37.5874L124.9764 37.3556L127.6903 37.0836L130.4041 36.8272L133.1632 36.6118L135.8771 35.8784L138.6362 35.5629L140.6264 35.3979L140.8977 40.1696L144.1091 39.3231L146.823 38.1768L149.5369 37.7137L152.2507 37.2359L155.0098 36.7609L157.7237 36.4755L160.4376 36.0518L163.1514 35.7323L165.8653 35.2677L168.5791 34.9464L171.293 34.6791L174.0521 34.4299L176.8112 34.0907L179.5703 33.6659L180.3845 33.5004L180.6559 38.4372L182.2842 38.1246L184.9528 37.7256L187.7571 37.2483L190.5162 36.8272L193.2301 36.1803L195.9892 35.8001L198.703 35.1013L201.4169 34.7149L204.1308 33.7142L206.8446 33.4313L209.6037 32.0795L212.2724 31.8478L215.0315 31.6487L217.7453 31.2865L220.4592 30.7025L222.8112 30.4683L223.0826 35.3793L225.4798 35.0985L225.706 40.2746L228.646 39.8379L231.3599 39.0164L234.0737 38.6789L236.7876 38.3638L239.5015 37.7292L242.2153 37.4607L243.8889 37.2189L244.1603 42.2919L247.7335 41.516L250.4926 41.1712L253.2065 40.6268L255.9656 40.4171L258.6794 40.1533L261.3933 39.9084L264.1524 39.3424L266.8663 39.1518L269.6254 38.8624L272.3845 38.501L275.0983 38.1682L277.8122 37.9561L280.5261 37.7069L283.2399 37.3839L285.9538 37.1121L288.6677 36.8841L291.4268 36.6018L294.1406 36.4138L295.7237 36.2878L296.0403 41.1748L299.5683 40.6279L302.3274 40.2388L305.0865 39.9489L307.8456 39.5754L310.5595 39.3269L313.2733 39.0667L315.9872 38.8241L318.7463 38.3859L321.4602 38.1555L324.2193 37.7513L326.9331 37.2533L329.6922 36.7606L332.4061 36.3688L335.1652 36.1123L337.8338 35.7733L339.1908 35.6727L339.4169 40.6808L343.352 40.1701L346.0659 39.932L348.7798 39.6307L351.4936 39.2376L354.2075 38.9709L356.9666 38.5485L359.6804 38.3229L362.4395 38.0038L365.1534 37.0835L367.8672 36.7852L370.6263 36.3247L373.3402 36.0712L376.0541 35.8581L378.7679 35.57L381.527 35.2858L384.2409 34.9613L387 34.7523L387 34.8588L384.2409 35.0621L381.527 35.3823L378.7679 35.663L376.0541 35.9435L373.3402 36.1538L370.6263 36.3987L367.8672 36.8574L365.1534 37.1447L362.4395 38.0623L359.6804 38.3792L356.9666 38.5961L354.2075 39.0147L351.4936 39.2777L348.7798 39.6634L346.0659 39.9611L343.352 40.1883L339.4169 40.6852L339.1908 35.7676L337.8338 35.8657L335.1652 36.1963L332.4061 36.4507L329.6922 36.8418L326.9331 37.3264L324.2193 37.8232L321.4602 38.2229L318.7463 38.4483L315.9872 38.8847L313.2733 39.1249L310.5595 39.3763L307.8456 39.6181L305.0865 39.9832L302.3274 40.2617L299.5683 40.6404L296.0403 41.1748L295.7237 36.3967L294.1406 36.5221L291.4268 36.7065L288.6677 36.9867L285.9538 37.2078L283.2399 37.4801L280.5261 37.7925L277.8122 38.0399L275.0983 38.246L272.3845 38.5742L269.6254 38.9281L266.8663 39.2108L264.1524 39.4015L261.3933 39.9639L258.6794 40.2022L255.9656 40.4563L253.2065 40.6591L250.4926 41.1925L247.7335 41.5335L244.1603 42.2974L243.8889 37.3345L242.2153 37.5706L239.5015 37.8289L236.7876 38.4558L234.0737 38.7562L231.3599 39.0413L228.646 39.854L225.706 40.2763L225.4798 35.1041L223.0826 35.3793L222.8112 31.7814L220.4592 32.0092L217.7453 32.588L215.0315 32.9028L212.2724 33.0948L209.6037 33.3257L206.8446 33.4875L204.1308 33.7679L201.4169 34.7642L198.703 35.1428L195.9892 35.8307L193.2301 36.208L190.5162 36.8508L187.7571 37.2659L184.9528 37.7364L182.2842 38.1278L180.6559 38.4372L180.3845 33.6126L179.5703 33.7768L176.8112 34.1983L174.0521 34.5332L171.293 34.7689L168.5791 35.0346L165.8653 35.3499L163.1514 35.8134L160.4376 36.1143L157.7237 36.5189L155.0098 36.8001L152.2507 37.2707L149.5369 37.7462L146.823 38.206L144.1091 39.3433L141.4405 40.1446L140.6264 35.5388L138.6362 35.6948L135.8771 36.0038L133.1632 36.7277L130.4041 36.9387L127.6903 37.1874L124.9764 37.4534L122.2625 37.684L119.5487 37.9061L116.8348 38.1251L114.0757 38.488L111.3618 38.8705L108.648 39.123L105.8889 39.4655L103.175 39.9884L100.4612 40.2301L97.7473 40.4691L95.0334 40.6828L92.3196 40.9944L89.5605 41.3193L86.8466 41.7052L84.1327 42.0609L81.4189 42.3057L78.705 42.9705L75.9911 43.2071L73.2321 43.5676L70.5182 43.9698L70.2016 39.5081L67.7139 39.6939L65 39.8611Z" fill="#7CB342"></path>
</g>
<g clip-path="url(#zr1-c0)">
<path d="M65 55.6998L67.7139 55.6874L70.2016 55.6874L73.2321 55.6822L75.9911 55.6728L78.705 55.6702L81.4189 55.569L84.1327 55.5631L86.8466 55.5544L89.5605 55.5525L92.3196 55.551L95.0334 55.4463L97.7473 55.4461L100.4612 55.4443L103.175 55.4405L105.8889 55.44L108.648 55.4325L111.3618 55.431L114.0757 55.4314L116.8348 55.4314L119.5487 55.4314L122.2625 55.4368L124.9764 55.4303L127.6903 55.431L130.4041 55.431L133.1632 55.431L135.8771 55.428L138.6362 55.428L140.6264 55.428L141.4405 55.4298L144.1091 55.38L146.823 55.3782L149.5369 55.3747L152.2507 55.3747L155.0098 55.1852L157.7237 55.1826L160.4376 55.0893L163.1514 55.0881L165.8653 55.0881L168.5791 55.0889L171.293 55.0889L174.0521 55.0882L176.8112 55.0847L179.5703 55.0847L180.3845 55.0847L182.2842 55.0818L184.9528 55.0864L187.7571 55.0864L190.5162 55.0845L193.2301 54.9916L195.9892 54.9766L198.703 54.9778L201.4169 54.9764L204.1308 54.9713L206.8446 54.9713L209.6037 54.9702L212.2724 54.9721L215.0315 54.9726L217.7453 54.9726L220.4592 54.8786L222.8112 54.8783L225.4798 54.875L228.646 54.8741L231.3599 54.8729L234.0737 54.8729L236.7876 54.8713L239.5015 54.6854L242.2153 54.6863L243.8889 54.6872L247.7335 54.6861L250.4926 54.6861L253.2065 54.4986L255.9656 54.4986L258.6794 54.4945L261.3933 54.4953L264.1524 54.4103L266.8663 54.4113L269.6254 54.4113L272.3845 54.4105L275.0983 54.4105L277.8122 54.4105L280.5261 54.4105L283.2399 54.4097L285.9538 54.4097L288.6677 54.4107L291.4268 54.4091L294.1406 54.4091L295.7237 54.4091L299.5683 54.4007L302.3274 54.4007L305.0865 54.4007L307.8456 54.3072L310.5595 54.3072L313.2733 54.3072L315.9872 54.3072L318.7463 54.1202L321.4602 54.1202L324.2193 54.1115L326.9331 53.9172L329.6922 53.7784L332.4061 53.6837L335.1652 53.683L337.8338 53.6831L339.1908 53.6801L343.352 53.6575L346.0659 53.6544L348.7798 53.6559L351.4936 53.6559L354.2075 53.6559L356.9666 53.5624L359.6804 53.5605L362.4395 53.5589L365.1534 53.5575L367.8672 53.5558L370.6263 53.4507L373.3402 53.4507L376.0541 53.4507L378.7679 53.4519L381.527 53.453L384.2409 53.4493L387 53.4493" fill="none" stroke="#D81B60" stroke-width="0" stroke-opacity="0" stroke-linejoin="bevel"></path>
</g>
<g clip-path="url(#zr1-c1)">
<path d="M65 52.5347L67.7139 52.5122L70.2016 52.507L73.2321 52.4824L75.9911 52.5439L78.705 52.5344L81.4189 52.3545L84.1327 52.3403L86.8466 52.3289L89.5605 52.2964L92.3196 52.2128L95.0334 52.1036L97.7473 52.0971L100.4612 52.0883L103.175 52.067L105.8889 52.0538L108.648 52.0296L111.3618 52.0139L114.0757 52.0135L116.8348 52.0033L119.5487 52.0044L122.2625 51.9655L124.9764 51.9524L127.6903 51.9405L130.4041 51.9335L133.1632 51.9059L135.8771 51.8912L138.6362 51.8852L140.6264 51.8755L141.4405 51.8716L144.1091 51.927L146.823 51.9137L149.5369 51.7346L152.2507 51.7241L155.0098 51.5292L157.7237 51.5444L160.4376 51.4465L163.1514 51.4333L165.8653 51.3983L168.5791 51.3931L171.293 51.3719L174.0521 51.3659L176.8112 51.3483L179.5703 51.3582L180.3845 51.3557L182.2842 51.3368L184.9528 51.2945L187.7571 51.2836L190.5162 51.2204L193.2301 51.1127L195.9892 51.0908L198.703 51.0828L201.4169 51.004L204.1308 50.9893L206.8446 50.9891L209.6037 51.0014L212.2724 51.0004L215.0315 50.9829L217.7453 50.9805L220.4592 50.8762L222.8112 50.8462L225.4798 50.8408L228.646 50.8175L231.3599 50.783L234.0737 50.7964L236.7876 50.7925L239.5015 50.5976L242.2153 50.6036L243.8889 50.5L247.7335 50.4917L250.4926 50.4897L253.2065 50.298L255.9656 50.295L258.6794 50.2847L261.3933 50.2625L264.1524 50.2061L266.8663 50.2058L269.6254 50.1959L272.3845 50.1932L275.0983 50.1923L277.8122 50.1969L280.5261 50.1936L283.2399 50.1919L285.9538 50.1807L288.6677 50.1992L291.4268 50.1967L294.1406 50.1998L295.7237 50.199L299.5683 50.1226L302.3274 50.1194L305.0865 50.1152L307.8456 50.0046L310.5595 49.9995L313.2733 50.0136L315.9872 50.01L318.7463 49.8218L321.4602 49.8136L324.2193 49.677L326.9331 49.4748L329.6922 49.3252L332.4061 49.2281L335.1652 49.2293L337.8338 49.2079L339.1908 49.2051L343.352 49.1795L346.0659 49.1757L348.7798 49.1725L351.4936 49.091L354.2075 49.0816L356.9666 48.9965L359.6804 48.9944L362.4395 48.9933L365.1534 48.9934L367.8672 48.9852L370.6263 48.8825L373.3402 48.8812L376.0541 48.8688L378.7679 48.8688L381.527 48.8656L384.2409 48.8565L387 48.855" fill="none" stroke="#8E24AA" stroke-width="0" stroke-opacity="0" stroke-linejoin="bevel"></path>
</g>
<g clip-path="url(#zr1-c2)">
<path d="M65 48.8291L67.7139 48.7881L70.2016 48.7829L73.2321 48.6482L75.9911 48.4596L78.705 48.4275L81.4189 48.1844L84.1327 48.1203L86.8466 47.9892L89.5605 47.8924L92.3196 47.8032L95.0334 47.6681L97.7473 47.6296L100.4612 47.515L103.175 47.4747L105.8889 47.3353L108.648 47.2831L111.3618 47.1998L114.0757 47.0578L116.8348 46.8704L119.5487 46.8393L122.2625 46.7882L124.9764 46.7442L127.6903 46.6241L130.4041 46.5964L133.1632 46.5537L135.8771 46.5154L138.6362 46.4077L140.6264 46.3845L141.4405 46.3708L144.1091 46.3887L146.823 46.3636L149.5369 46.1731L152.2507 46.0983L155.0098 45.8919L157.7237 45.9021L160.4376 45.7985L163.1514 45.775L165.8653 45.6752L168.5791 45.6112L171.293 45.5833L174.0521 45.5698L176.8112 45.5468L179.5703 45.5514L180.3845 45.5464L182.2842 45.6715L184.9528 45.725L187.7571 45.7193L190.5162 45.6845L193.2301 45.5055L195.9892 45.4663L198.703 45.4493L201.4169 45.3882L204.1308 45.3727L206.8446 45.3677L209.6037 45.3641L212.2724 45.416L215.0315 45.3875L217.7453 45.3821L220.4592 45.2657L222.8112 45.238L225.4798 45.2203L228.646 45.2485L231.3599 45.2123L234.0737 45.2253L236.7876 45.2587L239.5015 45.0585L242.2153 45.0398L243.8889 44.9437L247.7335 44.8976L250.4926 44.8928L253.2065 44.6968L255.9656 44.6938L258.6794 44.6827L261.3933 44.6645L264.1524 44.507L266.8663 44.5039L269.6254 44.496L272.3845 44.4873L275.0983 44.4771L277.8122 44.4729L280.5261 44.4885L283.2399 44.4913L285.9538 44.4462L288.6677 44.4617L291.4268 44.4895L294.1406 44.4948L295.7237 44.4914L299.5683 44.4063L302.3274 44.3695L305.0865 44.3668L307.8456 44.2509L310.5595 44.2841L313.2733 44.2949L315.9872 44.3211L318.7463 44.1319L321.4602 44.1184L324.2193 43.9786L326.9331 43.739L329.6922 43.5966L332.4061 43.5105L335.1652 43.5778L337.8338 43.5593L339.1908 43.5533L343.352 43.4807L346.0659 43.4788L348.7798 43.4631L351.4936 43.3727L354.2075 43.3619L356.9666 43.307L359.6804 43.2949L362.4395 43.2685L365.1534 43.2526L367.8672 43.2392L370.6263 43.101L373.3402 43.0871L376.0541 43.0703L378.7679 43.071L381.527 43.0645L384.2409 43.0511L387 43.0475" fill="none" stroke="#5E35B1" stroke-width="0" stroke-opacity="0" stroke-linejoin="bevel"></path>
</g>
<g clip-path="url(#zr1-c3)">
<path d="M65 46.0939L67.7139 46.0395L70.2016 46.028L73.2321 45.854L75.9911 45.6325L78.705 45.5269L81.4189 45.1142L84.1327 45.0588L86.8466 44.8585L89.5605 44.7205L92.3196 44.5388L95.0334 44.3957L97.7473 44.2965L100.4612 44.1806L103.175 44.0966L105.8889 43.6877L108.648 43.6099L111.3618 43.5099L114.0757 43.3411L116.8348 43.1485L119.5487 43.1058L122.2625 43.0501L124.9764 42.9896L127.6903 42.8746L130.4041 42.7966L133.1632 42.7349L135.8771 42.6458L138.6362 42.4974L140.6264 42.4712L141.4405 42.4557L144.1091 42.4437L146.823 41.9102L149.5369 41.7445L152.2507 41.5251L155.0098 41.3483L157.7237 41.3289L160.4376 41.1634L163.1514 41.1844L165.8653 40.9799L168.5791 40.8952L171.293 40.8268L174.0521 40.8044L176.8112 40.6463L179.5703 40.6292L180.3845 40.625L182.2842 40.7376L184.9528 40.772L187.7571 40.824L190.5162 40.7616L193.2301 40.5987L195.9892 40.5467L198.703 40.5121L201.4169 40.4055L204.1308 40.0496L206.8446 40.0385L209.6037 40.0304L212.2724 40.0729L215.0315 40.042L217.7453 40.113L220.4592 39.9903L222.8112 39.9205L225.4798 39.8254L228.646 40.3574L231.3599 40.2925L234.0737 40.2083L236.7876 40.1926L239.5015 39.7632L242.2153 39.6929L243.8889 39.5453L244.1603 42.3696L247.7335 42.1468L250.4926 42.084L253.2065 41.8002L255.9656 41.7785L258.6794 41.7222L261.3933 41.6786L264.1524 41.5205L266.8663 41.4965L269.6254 41.4702L272.3845 41.446L275.0983 41.409L277.8122 41.3711L280.5261 41.3343L283.2399 41.357L285.9538 41.3006L288.6677 41.2594L291.4268 41.279L294.1406 41.2713L295.7237 41.2606L299.5683 41.1465L302.3274 41.0609L305.0865 41.007L307.8456 40.8296L310.5595 40.8381L313.2733 40.8561L315.9872 40.893L318.7463 40.687L321.4602 40.6285L324.2193 40.4369L326.9331 40.1844L329.6922 39.9732L332.4061 39.8955L335.1652 39.8526L337.8338 39.9141L339.1908 39.8672L339.4169 40.7511L343.352 40.5705L346.0659 40.5075L348.7798 40.4372L351.4936 40.2814L354.2075 40.2608L356.9666 40.1179L359.6804 40.1107L362.4395 40.0831L365.1534 40.0499L367.8672 40.0205L370.6263 39.7983L373.3402 39.7212L376.0541 39.682L378.7679 39.7345L381.527 39.672L384.2409 39.6196L387 39.5787" fill="none" stroke="#3949AB" stroke-width="0" stroke-opacity="0" stroke-linejoin="bevel"></path>
</g>
<g clip-path="url(#zr1-c4)">
<path d="M65 43.7261L67.7139 43.6658L70.2016 43.5918L73.2321 43.8543L75.9911 43.5653L78.705 43.3759L81.4189 42.8221L84.1327 42.6755L86.8466 42.4243L89.5605 42.1395L92.3196 41.9177L95.0334 41.7049L97.7473 41.5814L100.4612 41.4061L103.175 41.2653L105.8889 40.8662L108.648 40.6929L111.3618 40.5837L114.0757 40.3867L116.8348 40.2412L119.5487 40.1285L122.2625 40.0757L124.9764 39.9554L127.6903 39.8389L130.4041 39.7016L133.1632 39.6506L135.8771 39.0531L138.6362 38.8652L140.6264 38.7728L140.8977 40.2756L144.1091 39.6476L146.823 38.7288L149.5369 38.5009L152.2507 38.2472L155.0098 37.9569L157.7237 37.8549L160.4376 37.6782L163.1514 37.5926L165.8653 37.3026L168.5791 37.1466L171.293 37.0424L174.0521 36.9521L176.8112 36.7619L179.5703 36.7145L180.3845 36.6806L180.6559 38.4469L182.2842 38.395L184.9528 38.3511L187.7571 38.0129L190.5162 37.7912L193.2301 37.4743L195.9892 37.3174L198.703 37.2423L201.4169 37.0648L204.1308 36.2643L206.8446 36.1708L209.6037 36.1669L212.2724 36.2803L215.0315 36.2421L217.7453 36.0885L220.4592 35.8597L222.8112 35.7826L225.4798 35.6726L225.706 40.3691L228.646 40.1976L231.3599 39.4939L234.0737 39.3086L236.7876 39.1483L239.5015 38.6148L242.2153 38.4558L243.8889 38.2514L244.1603 42.3189L247.7335 41.7608L250.4926 41.5549L253.2065 41.1384L255.9656 41.0292L258.6794 40.8727L261.3933 40.7476L264.1524 40.263L266.8663 40.1764L269.6254 40.0154L272.3845 39.8931L275.0983 39.6825L277.8122 39.5863L280.5261 39.4683L283.2399 39.2672L285.9538 39.1764L288.6677 39.1432L291.4268 39.1178L294.1406 39.1394L295.7237 39.0139L296.0403 41.1786L299.5683 40.8732L302.3274 40.6294L305.0865 40.482L307.8456 40.2182L310.5595 40.1198L313.2733 39.9742L315.9872 39.872L318.7463 39.5182L321.4602 39.3784L324.2193 39.0864L326.9331 38.704L329.6922 38.3546L332.4061 38.1033L335.1652 38.0236L337.8338 37.9439L339.1908 37.893L339.4169 40.7339L343.352 40.396L346.0659 40.2603L348.7798 40.1166L351.4936 39.839L354.2075 39.6944L356.9666 39.3887L359.6804 39.2592L362.4395 39.0258L365.1534 38.188L367.8672 38.0512L370.6263 37.7255L373.3402 37.6325L376.0541 37.5222L378.7679 37.4101L381.527 37.3768L384.2409 37.2008L387 37.0938" fill="none" stroke="#1E88E5" stroke-width="0" stroke-opacity="0" stroke-linejoin="bevel"></path>
</g>
<g clip-path="url(#zr1-c5)">
<path d="M65 41.1037L67.7139 40.9835L70.2016 40.8596L70.5182 44.0462L73.2321 43.7332L75.9911 43.4068L78.705 43.1878L81.4189 42.5677L84.1327 42.3422L86.8466 42.0153L89.5605 41.6755L92.3196 41.377L95.0334 41.1117L97.7473 40.9183L100.4612 40.6994L103.175 40.4787L105.8889 39.975L108.648 39.6921L111.3618 39.4705L114.0757 39.1139L116.8348 38.7777L119.5487 38.5805L122.2625 38.3946L124.9764 38.1981L127.6903 37.9777L130.4041 37.7651L133.1632 37.5892L135.8771 36.9078L138.6362 36.6343L140.6264 36.4649L140.8977 40.2116L144.1091 39.4507L146.823 38.3375L149.5369 37.9391L152.2507 37.5022L155.0098 37.0919L157.7237 36.8421L160.4376 36.4878L163.1514 36.2516L165.8653 35.834L168.5791 35.5513L171.293 35.3111L174.0521 35.0983L176.8112 34.7772L179.5703 34.4234L180.3845 34.2469L180.6559 38.4417L182.2842 38.1579L184.9528 37.8303L187.7571 37.3773L190.5162 37.0084L193.2301 36.4359L195.9892 36.1016L198.703 35.4441L201.4169 35.0921L204.1308 34.1752L206.8446 33.9403L209.6037 33.8287L212.2724 33.6569L215.0315 33.5375L217.7453 33.2697L220.4592 32.9098L222.8112 32.7457L223.0826 35.3802L225.4798 35.1915L225.706 40.3131L228.646 39.9556L231.3599 39.1795L234.0737 38.9346L236.7876 38.6837L239.5015 38.1063L242.2153 37.8954L243.8889 37.6784L244.1603 42.3081L247.7335 41.6249L250.4926 41.322L253.2065 40.8181L255.9656 40.6715L258.6794 40.4614L261.3933 40.2529L264.1524 39.7097L266.8663 39.5561L269.6254 39.3262L272.3845 38.9983L275.0983 38.7082L277.8122 38.5342L280.5261 38.3149L283.2399 38.0272L285.9538 37.7934L288.6677 37.6019L291.4268 37.3785L294.1406 37.2564L295.7237 37.1405L296.0403 41.1779L299.5683 40.732L302.3274 40.3956L305.0865 40.1468L307.8456 39.8308L310.5595 39.6738L313.2733 39.4466L315.9872 39.2321L318.7463 38.8275L321.4602 38.6432L324.2193 38.2937L326.9331 37.8357L329.6922 37.377L332.4061 37.037L335.1652 36.8424L337.8338 36.5465L339.1908 36.4596L339.4169 40.6991L343.352 40.2507L346.0659 40.0579L348.7798 39.8006L351.4936 39.4666L354.2075 39.255L356.9666 38.8619L359.6804 38.683L362.4395 38.4079L365.1534 37.5258L367.8672 37.282L370.6263 36.8499L373.3402 36.647L376.0541 36.4486L378.7679 36.2071L381.527 35.9544L384.2409 35.6629L387 35.481" fill="none" stroke="#039BE5" stroke-width="0" stroke-opacity="0" stroke-linejoin="bevel"></path>
</g>
<g clip-path="url(#zr1-c6)">
<path d="M65 40.5222L67.7139 40.3685L70.2016 40.195L70.5182 43.9762L73.2321 43.609L75.9911 43.267L78.705 43.0411L81.4189 42.3997L84.1327 42.1637L86.8466 41.826L89.5605 41.4576L92.3196 41.1496L95.0334 40.855L97.7473 40.6576L100.4612 40.4336L103.175 40.2057L105.8889 39.6963L108.648 39.3759L111.3618 39.1417L114.0757 38.7782L116.8348 38.4337L119.5487 38.2295L122.2625 38.0226L124.9764 37.8076L127.6903 37.5513L130.4041 37.3244L133.1632 37.1302L135.8771 36.4234L138.6362 36.117L140.6264 35.9701L140.8977 40.1973L144.1091 39.3904L146.823 38.2641L149.5369 37.8343L152.2507 37.3832L155.0098 36.9414L157.7237 36.6796L160.4376 36.3012L163.1514 36.0422L165.8653 35.6034L168.5791 35.3004L171.293 35.0464L174.0521 34.8207L176.8112 34.4925L179.5703 34.1042L180.3845 33.9451L180.6559 38.441L182.2842 38.1425L184.9528 37.7796L187.7571 37.3175L190.5162 36.929L193.2301 36.3462L195.9892 35.988L198.703 35.3133L201.4169 34.9471L204.1308 34.0127L206.8446 33.7459L209.6037 33.6054L212.2724 33.3886L215.0315 33.2164L217.7453 32.9278L220.4592 32.3641L222.8112 32.1432L223.0826 35.3802L225.4798 35.138L225.706 40.2965L228.646 39.9031L231.3599 39.1027L234.0737 38.8284L236.7876 38.5392L239.5015 37.9274L242.2153 37.6946L243.8889 37.4634L244.1603 42.302L247.7335 41.5733L250.4926 41.2488L253.2065 40.7218L255.9656 40.5454L258.6794 40.3159L261.3933 40.0928L264.1524 39.5389L266.8663 39.363L269.6254 39.1098L272.3845 38.7671L275.0983 38.4629L277.8122 38.2619L280.5261 38.0335L283.2399 37.7313L285.9538 37.4712L288.6677 37.2576L291.4268 36.9916L294.1406 36.815L295.7237 36.6951L296.0403 41.1772L299.5683 40.6778L302.3274 40.3162L305.0865 40.0479L307.8456 39.6994L310.5595 39.4847L313.2733 39.245L315.9872 39.0204L318.7463 38.6002L321.4602 38.3989L324.2193 38.0096L326.9331 37.528L329.6922 37.0544L332.4061 36.6782L335.1652 36.433L337.8338 36.1184L339.1908 36.0252L339.4169 40.6893L343.352 40.2082L346.0659 39.9943L348.7798 39.714L351.4936 39.352L354.2075 39.1183L356.9666 38.7143L359.6804 38.5057L362.4395 38.213L365.1534 37.3068L367.8672 37.0473L370.6263 36.5965L373.3402 36.367L376.0541 36.161L378.7679 35.9028L381.527 35.6346L384.2409 35.3303L387 35.1372" fill="none" stroke="#00ACC1" stroke-width="0" stroke-opacity="0" stroke-linejoin="bevel"></path>
</g>
<g clip-path="url(#zr1-c7)">
<path d="M65 40.074L67.7139 39.9107L70.2016 39.7207L70.5182 43.9746L73.2321 43.5992L75.9911 43.2413L78.705 43.01L81.4189 42.3475L84.1327 42.1064L86.8466 41.7575L89.5605 41.379L92.3196 41.0568L95.0334 40.7488L97.7473 40.5388L100.4612 40.3047L103.175 40.0742L105.8889 39.5582L108.648 39.2211L111.3618 38.9726L114.0757 38.5954L116.8348 38.239L119.5487 38.0232L122.2625 37.8081L124.9764 37.5825L127.6903 37.321L130.4041 37.0806L133.1632 36.8724L135.8771 36.1533L138.6362 35.8441L140.6264 35.6922L140.8977 40.1876L144.1091 39.3653L146.823 38.228L149.5369 37.7819L152.2507 37.3178L155.0098 36.862L157.7237 36.5933L160.4376 36.1918L163.1514 35.8938L165.8653 35.4361L168.5791 35.1191L171.293 34.8568L174.0521 34.6216L176.8112 34.2878L179.5703 33.8735L180.3845 33.7072L180.6559 38.4372L182.2842 38.1343L184.9528 37.757L187.7571 37.2871L190.5162 36.8778L193.2301 36.2802L195.9892 35.9083L198.703 35.2224L201.4169 34.8535L204.1308 33.896L206.8446 33.6175L209.6037 33.4626L212.2724 33.2359L215.0315 33.0489L217.7453 32.7163L220.4592 32.146L222.8112 31.9169L223.0826 35.3793L225.4798 35.1145L225.706 40.2795L228.646 39.8735L231.3599 39.0621L234.0737 38.7793L236.7876 38.4801L239.5015 37.8629L242.2153 37.6151L243.8889 37.3825L244.1603 42.3004L247.7335 41.5408L250.4926 41.2042L253.2065 40.6721L255.9656 40.4766L258.6794 40.2242L261.3933 39.991L264.1524 39.4285L266.8663 39.2483L269.6254 38.9723L272.3845 38.6222L275.0983 38.296L277.8122 38.089L280.5261 37.8475L283.2399 37.5396L285.9538 37.2674L288.6677 37.0462L291.4268 36.7685L294.1406 36.5841L295.7237 36.4583L296.0403 41.1763L299.5683 40.6487L302.3274 40.2759L305.0865 40.0005L307.8456 39.6378L310.5595 39.4016L313.2733 39.152L315.9872 38.9186L318.7463 38.4864L321.4602 38.2629L324.2193 37.868L326.9331 37.3719L329.6922 36.8909L332.4061 36.5061L335.1652 36.2518L337.8338 35.9255L339.1908 35.8285L339.4169 40.6866L343.352 40.1923L346.0659 39.9652L348.7798 39.6733L351.4936 39.2963L354.2075 39.0383L356.9666 38.6229L359.6804 38.4041L362.4395 38.0954L365.1534 37.1803L367.8672 36.8982L370.6263 36.4396L373.3402 36.2012L376.0541 35.9918L378.7679 35.7184L381.527 35.4429L384.2409 35.1281L387 34.9267" fill="none" stroke="#00897B" stroke-width="0" stroke-opacity="0" stroke-linejoin="bevel"></path>
</g>
<g clip-path="url(#zr1-c8)">
<path d="M65 39.8611L67.7139 39.6939L70.2016 39.5081L70.5182 43.9698L73.2321 43.5676L75.9911 43.2071L78.705 42.9705L81.4189 42.3057L84.1327 42.0609L86.8466 41.7052L89.5605 41.3193L92.3196 40.9944L95.0334 40.6828L97.7473 40.4691L100.4612 40.2301L103.175 39.9884L105.8889 39.4655L108.648 39.123L111.3618 38.8705L114.0757 38.488L116.8348 38.1251L119.5487 37.9061L122.2625 37.684L124.9764 37.4534L127.6903 37.1874L130.4041 36.9387L133.1632 36.7277L135.8771 36.0038L138.6362 35.6948L140.6264 35.5388L140.8977 40.1838L144.1091 39.3433L146.823 38.206L149.5369 37.7462L152.2507 37.2707L155.0098 36.8001L157.7237 36.5189L160.4376 36.1143L163.1514 35.8134L165.8653 35.3499L168.5791 35.0346L171.293 34.7689L174.0521 34.5332L176.8112 34.1983L179.5703 33.7768L180.3845 33.6126L180.6559 38.4372L182.2842 38.1278L184.9528 37.7364L187.7571 37.2659L190.5162 36.8508L193.2301 36.208L195.9892 35.8307L198.703 35.1428L201.4169 34.7642L204.1308 33.7679L206.8446 33.4875L209.6037 33.3257L212.2724 33.0948L215.0315 32.9028L217.7453 32.588L220.4592 32.0092L222.8112 31.7814L223.0826 35.3793L225.4798 35.1041L225.706 40.2763L228.646 39.854L231.3599 39.0413L234.0737 38.7562L236.7876 38.4558L239.5015 37.8289L242.2153 37.5706L243.8889 37.3345L244.1603 42.2974L247.7335 41.5335L250.4926 41.1925L253.2065 40.6591L255.9656 40.4563L258.6794 40.2022L261.3933 39.9639L264.1524 39.4015L266.8663 39.2108L269.6254 38.9281L272.3845 38.5742L275.0983 38.246L277.8122 38.0399L280.5261 37.7925L283.2399 37.4801L285.9538 37.2078L288.6677 36.9867L291.4268 36.7065L294.1406 36.5221L295.7237 36.3967L296.0403 41.1748L299.5683 40.6404L302.3274 40.2617L305.0865 39.9832L307.8456 39.6181L310.5595 39.3763L313.2733 39.1249L315.9872 38.8847L318.7463 38.4483L321.4602 38.2229L324.2193 37.8232L326.9331 37.3264L329.6922 36.8418L332.4061 36.4507L335.1652 36.1963L337.8338 35.8657L339.1908 35.7676L339.4169 40.6852L343.352 40.1883L346.0659 39.9611L348.7798 39.6634L351.4936 39.2777L354.2075 39.0147L356.9666 38.5961L359.6804 38.3792L362.4395 38.0623L365.1534 37.1447L367.8672 36.8574L370.6263 36.3987L373.3402 36.1538L376.0541 35.9435L378.7679 35.663L381.527 35.3823L384.2409 35.0621L387 34.8588" fill="none" stroke="#43A047" stroke-width="0" stroke-opacity="0" stroke-linejoin="bevel"></path>
</g>
<g clip-path="url(#zr1-c9)">
<path d="M65 39.6821L67.7139 39.5144L70.2016 39.3286L70.5182 43.9698L73.2321 43.5536L75.9911 43.1933L78.705 42.9499L81.4189 42.2782L84.1327 42.0297L86.8466 41.6692L89.5605 41.2807L92.3196 40.952L95.0334 40.6357L97.7473 40.4135L100.4612 40.1685L103.175 39.9261L105.8889 39.3992L108.648 39.0463L111.3618 38.7921L114.0757 38.4057L116.8348 38.0367L119.5487 37.8103L122.2625 37.5874L124.9764 37.3556L127.6903 37.0836L130.4041 36.8272L133.1632 36.6118L135.8771 35.8784L138.6362 35.5629L140.6264 35.3979L140.8977 40.1696L144.1091 39.3231L146.823 38.1768L149.5369 37.7137L152.2507 37.2359L155.0098 36.7609L157.7237 36.4755L160.4376 36.0518L163.1514 35.7323L165.8653 35.2677L168.5791 34.9464L171.293 34.6791L174.0521 34.4299L176.8112 34.0907L179.5703 33.6659L180.3845 33.5004L180.6559 38.4372L182.2842 38.1246L184.9528 37.7256L187.7571 37.2483L190.5162 36.8272L193.2301 36.1803L195.9892 35.8001L198.703 35.1013L201.4169 34.7149L204.1308 33.7142L206.8446 33.4313L209.6037 32.0795L212.2724 31.8478L215.0315 31.6487L217.7453 31.2865L220.4592 30.7025L222.8112 30.4683L223.0826 35.3793L225.4798 35.0985L225.706 40.2746L228.646 39.8379L231.3599 39.0164L234.0737 38.6789L236.7876 38.3638L239.5015 37.7292L242.2153 37.4607L243.8889 37.2189L244.1603 42.2919L247.7335 41.516L250.4926 41.1712L253.2065 40.6268L255.9656 40.4171L258.6794 40.1533L261.3933 39.9084L264.1524 39.3424L266.8663 39.1518L269.6254 38.8624L272.3845 38.501L275.0983 38.1682L277.8122 37.9561L280.5261 37.7069L283.2399 37.3839L285.9538 37.1121L288.6677 36.8841L291.4268 36.6018L294.1406 36.4138L295.7237 36.2878L296.0403 41.1748L299.5683 40.6279L302.3274 40.2388L305.0865 39.9489L307.8456 39.5754L310.5595 39.3269L313.2733 39.0667L315.9872 38.8241L318.7463 38.3859L321.4602 38.1555L324.2193 37.7513L326.9331 37.2533L329.6922 36.7606L332.4061 36.3688L335.1652 36.1123L337.8338 35.7733L339.1908 35.6727L339.4169 40.6808L343.352 40.1701L346.0659 39.932L348.7798 39.6307L351.4936 39.2376L354.2075 38.9709L356.9666 38.5485L359.6804 38.3229L362.4395 38.0038L365.1534 37.0835L367.8672 36.7852L370.6263 36.3247L373.3402 36.0712L376.0541 35.8581L378.7679 35.57L381.527 35.2858L384.2409 34.9613L387 34.7523" fill="none" stroke="#7CB342" stroke-width="0" stroke-opacity="0" stroke-linejoin="bevel"></path>
</g>
<path d="M65 534.8L387 534.8" fill="none" stroke="#fff" stroke-width="0"></path>
<path d="M65 534.8L387 534.8" fill="none" stroke="#fff" stroke-width="0"></path>
<path d="M65 534.8L387 534.8" fill="none" stroke="#fff" stroke-width="0"></path>
<path d="M65 534.8L387 534.8" fill="none" stroke="#fff" stroke-width="0"></path>
<path d="M65 534.8L387 534.8" fill="none" stroke="#fff" stroke-width="0"></path>
<path d="M65 534.8L387 534.8" fill="none" stroke="#fff" stroke-width="0"></path>
<path d="M65 534.8L387 534.8" fill="none" stroke="#fff" stroke-width="0"></path>
<path d="M65 534.8L387 534.8" fill="none" stroke="#fff" stroke-width="0"></path>
<path d="M65 534.8L387 534.8" fill="none" stroke="#fff" stroke-width="0"></path>
<path d="M65 534.8L387 534.8" fill="none" stroke="#fff" stroke-width="0"></path>
<defs >
<clipPath id="zr1-c0">
<path d="M64 19l324 0l0 522l-324 0Z" fill="#000"></path>
</clipPath>
<clipPath id="zr1-c1">
<path d="M64 19l324 0l0 522l-324 0Z" fill="#000"></path>
</clipPath>
<clipPath id="zr1-c2">
<path d="M64 19l324 0l0 522l-324 0Z" fill="#000"></path>
</clipPath>
<clipPath id="zr1-c3">
<path d="M64 19l324 0l0 522l-324 0Z" fill="#000"></path>
</clipPath>
<clipPath id="zr1-c4">
<path d="M64 19l324 0l0 522l-324 0Z" fill="#000"></path>
</clipPath>
<clipPath id="zr1-c5">
<path d="M64 19l324 0l0 522l-324 0Z" fill="#000"></path>
</clipPath>
<clipPath id="zr1-c6">
<path d="M64 19l324 0l0 522l-324 0Z" fill="#000"></path>
</clipPath>
<clipPath id="zr1-c7">
<path d="M64 19l324 0l0 522l-324 0Z" fill="#000"></path>
</clipPath>
<clipPath id="zr1-c8">
<path d="M64 19l324 0l0 522l-324 0Z" fill="#000"></path>
</clipPath>
<clipPath id="zr1-c9">
<path d="M64 19l324 0l0 522l-324 0Z" fill="#000"></path>
</clipPath>
</defs>
</svg>