<svg width="32" height="33" viewBox="0 0 32 33" fill="none" xmlns="http://www.w3.org/2000/svg">
<path d="M14.6521 2.5791C20.3951 1.64097 26.2562 0.820864 31.9992 0V0.234533V15.2378C26.2554 15.2378 20.3951 15.355 14.6514 15.355C14.6521 11.1357 14.6521 6.7984 14.6521 2.5791Z" fill="#D1D5DA"/>
<path d="M0 4.5711C4.33657 3.86826 8.6739 3.28193 13.1277 2.81287C13.1277 7.03293 13.1277 11.135 13.1277 15.355C8.6739 15.355 4.33657 15.4723 0 15.4723V4.5711Z" fill="#D1D5DA"/>
<path d="M0 16.7615C4.33657 16.7615 8.6739 16.8787 13.1277 16.7615C13.1277 20.9815 13.1277 25.2008 13.1277 29.4209C8.6739 28.8346 4.33657 28.249 0 27.6627V16.7615Z" fill="#D1D5DA"/>
<path d="M14.6522 16.8787C20.396 16.8787 26.2563 16.8787 32 16.8787V31.4137V32.1173C26.2563 31.1799 20.396 30.4763 14.6522 29.6554C14.6522 25.4354 14.6522 21.2161 14.6522 16.8787Z" fill="#D1D5DA"/>
</svg>
