<svg width="32" height="40" viewBox="0 0 32 40" fill="none" xmlns="http://www.w3.org/2000/svg">
<g clip-path="url(#clip0)">
<path d="M26.7182 20.8855C26.6737 15.9145 30.7782 13.528 30.9639 13.4116C28.6541 10.0325 25.0596 9.56952 23.7772 9.51506C20.7198 9.20561 17.8085 11.3148 16.2588 11.3148C14.7091 11.3148 12.3127 9.55962 9.77769 9.60913C6.44058 9.65865 3.36836 11.5475 1.65029 14.5331C-1.81307 20.5414 0.766508 29.4461 4.13828 34.323C5.7895 36.707 7.75512 39.3931 10.3396 39.294C12.8301 39.195 13.7708 37.6849 16.7762 37.6849C19.7816 37.6849 20.6282 39.294 23.2598 39.247C25.9359 39.195 27.6342 36.811 29.273 34.4196C31.1644 31.6519 31.9467 28.9733 31.9912 28.8322C31.9318 28.8074 26.7727 26.8294 26.7182 20.8855Z" fill="#D1D5DA"/>
<path d="M21.7744 6.28886C23.1459 4.62773 24.0717 2.31796 23.8167 0.0157471C21.841 0.095052 19.4497 1.33279 18.0312 2.99392C16.7612 4.46202 15.6472 6.81377 15.9491 9.06911C18.1525 9.23993 20.4027 7.94755 21.7744 6.28886Z" fill="#D1D5DA"/>
</g>
<defs>
<clipPath id="clip0">
<rect width="32" height="39.3117" fill="white"/>
</clipPath>
</defs>
</svg>
