<?xml version="1.0" encoding="UTF-8"?>
<svg  viewBox="0 0 56 56" version="1.1" xmlns="http://www.w3.org/2000/svg" xmlns:xlink="http://www.w3.org/1999/xlink">
    <!-- Generator: Sketch 61.2 (89653) - https://sketch.com -->
    <title>GitHub CLI</title>
    <desc>Created with Sketch.</desc>
    <g id="light" stroke="none" stroke-width="1" fill="none" fill-rule="evenodd">
        <g  id="Titles" opacity="0.597353981" transform="translate(-473.000000, -1751.000000)"></g>
        <g  id="Slides" transform="translate(-456.000000, -1817.000000)"></g>
        <g  id="GitHub-CLI" transform="translate(5.000000, 5.000000)">
            <path d="M35.6797423,46.9274359 L35.6797423,44.3863402 C35.6748535,43.9292805 35.7980765,43.5076812 36.0494114,43.1215422 C35.5238353,43.0825494 32.210006,42.7510065 32.210006,38.8196165 C32.210006,37.8065919 32.515086,36.9810709 33.1252462,36.3430535 C32.9620788,35.7654598 32.9132705,35.1451896 32.9788215,34.4822428 C33.0659718,33.6008527 33.9251662,33.6604192 35.5564047,34.6609423 C36.8327938,34.1902024 38.4076438,34.1902024 40.2809546,34.6609423 C40.5293475,34.3575493 42.7145867,32.9572844 42.9394802,34.3928583 C42.9858584,34.6889066 42.9546175,35.3389717 42.8457574,36.3430535 C43.3622864,36.8668959 43.6223832,37.7005954 43.6260479,38.844152 C43.6332936,41.1052095 42.3666386,42.5310062 39.826083,43.1215422 C40.0657495,43.5576219 40.1810707,43.9792212 40.1720465,44.3863402 C40.1630224,44.7934591 40.1630224,45.6646791 40.1720465,47 C42.6019224,46.2564727 44.4003833,44.9397539 45.5674291,43.0498434 C46.4044173,41.6944273 47,40.1179209 47,38.1846423 C47,35.2994827 45.824892,33.2014202 44.5001298,31.797124 C42.713553,29.9032874 40.2658089,29 38,29 C35.7524543,29 33.2387363,29.9238638 31.4120566,31.8971429 C30.0277571,33.3925389 29,35.5070018 29,38.1846423 C29,40.2112233 29.7011355,42.1297783 30.7732437,43.5648123 C32.0011223,45.2083477 33.6366218,46.3292222 35.6797423,46.9274359 Z"  id="Path-65" stroke="#2088FF" stroke-width="2" stroke-linecap="round" stroke-linejoin="round"></path>
            <path d="M25.0238095,40 L10.7619048,40 C9.68015956,40 9,39.2649747 9,38.25 L9,7.75 C9,6.73502531 9.68015956,6 10.7619048,6 L40.2380952,6 C41.3198404,6 42,6.73502531 42,7.75 L42,25.75"  id="Stroke-5" stroke="#79B8FF" stroke-width="2" stroke-linecap="round" stroke-linejoin="round"></path>
            <path d="M5,34 L2,34 C0.772073016,34 0,33.1599711 0,32 L0,2 C0,0.840028925 0.772073016,0 2,0 L31,0 C32.227927,0 33,0.840028925 33,2"  id="Stroke-5" stroke="#2088FF" stroke-width="2" stroke-linecap="round" stroke-linejoin="round"></path>
            <line x1="1.70530257e-13" y1="6.06811523" x2="5" y2="6.06811523"  id="Stroke-13" stroke="#2088FF" stroke-width="2" stroke-linecap="round" stroke-linejoin="round"></line>
            <circle  id="Oval" fill="#79B8FF" cx="14" cy="11" r="1"></circle>
            <circle  id="Oval" fill="#79B8FF" cx="17" cy="11" r="1"></circle>
            <circle  id="Oval" fill="#79B8FF" cx="20" cy="11" r="1"></circle>
            <polyline  id="Path" stroke="#2088FF" stroke-width="2" stroke-linecap="round" stroke-linejoin="round" transform="translate(14.007385, 20.024231) rotate(45.000000) translate(-14.007385, -20.024231) " points="11.1513368 17.1915743 16.8634337 17.18277 16.8254544 22.8656919"></polyline>
            <line x1="21.409668" y1="24" x2="28" y2="24"  id="Path-84" stroke="#2088FF" stroke-width="2" stroke-linecap="round"></line>
        </g>
    </g>
</svg>