<svg width="32" height="39" viewBox="0 0 32 39" fill="none" xmlns="http://www.w3.org/2000/svg">
<g clip-path="url(#clip0)">
<path d="M30.7376 30.4602C30.7371 30.4598 30.7366 30.4593 30.7366 30.4589C30.4639 30.151 30.3339 29.5802 30.1942 28.9721C30.0548 28.3645 29.8989 27.7092 29.4 27.2845C29.3991 27.2835 29.3977 27.2827 29.3969 27.2817C29.298 27.1954 29.1964 27.1227 29.0944 27.062C28.992 27.0013 28.8881 26.9519 28.7843 26.9128C29.4778 24.8561 29.2059 22.8081 28.5057 20.9577C27.6468 18.6862 26.147 16.7074 25.0014 15.3537C23.7192 13.7362 22.4652 12.2009 22.49 9.93302C22.5281 6.4719 22.8706 0.0534752 16.7798 0.0449359C16.5322 0.0444865 16.2738 0.0548236 16.0045 0.0763966C9.19825 0.624262 11.0036 7.81527 10.9025 10.2229C10.778 11.9838 10.4212 13.3717 9.20994 15.093C7.78747 16.7847 5.78387 19.5231 4.83511 22.3739C4.38747 23.7191 4.17443 25.0903 4.37084 26.3883C4.30927 26.4435 4.25084 26.5016 4.19466 26.5609C3.77713 27.0072 3.46837 27.5474 3.12455 27.911C2.8032 28.2319 2.34567 28.3537 1.8423 28.5339C1.33893 28.7146 0.786573 28.9806 0.451292 29.6242C0.451292 29.6242 0.451292 29.6247 0.450843 29.6247C0.450393 29.6256 0.449944 29.627 0.449045 29.6278C0.291292 29.9222 0.240057 30.2399 0.240057 30.5622C0.240057 30.8602 0.284101 31.1622 0.328596 31.453C0.42118 32.0579 0.515112 32.63 0.390618 33.0175C-0.00758366 34.1065 -0.0588196 34.8593 0.22163 35.4058C0.502978 35.9532 1.08051 36.1946 1.73354 36.3312C3.0396 36.6036 4.80814 36.5362 6.20185 37.275L6.32185 37.049L6.2032 37.2755C7.69533 38.0557 9.20814 38.3326 10.4149 38.0571C11.2904 37.8576 12.0005 37.3362 12.3654 36.5344C13.3093 36.5299 14.3452 36.1299 16.0045 36.0387C17.1304 35.9479 18.5367 36.4386 20.1542 36.3488C20.1964 36.524 20.2576 36.693 20.3412 36.8535C20.3421 36.8548 20.343 36.8566 20.3439 36.858C20.9708 38.1119 22.1358 38.6854 23.3776 38.5874C24.6207 38.4894 25.9425 37.7564 27.0113 36.4849L26.8154 36.3204L27.0127 36.4831C28.0311 35.2481 29.7215 34.7362 30.8428 34.0602C31.4033 33.7222 31.8576 33.2989 31.8932 32.684C31.9281 32.0697 31.5672 31.3811 30.7376 30.4602Z" fill="#D1D5DA"/>
<path d="M31.3816 32.6548C31.36 33.0341 31.0854 33.316 30.578 33.6216C29.564 34.2333 27.7667 34.7654 26.6193 36.1555C25.6224 37.3416 24.4071 37.9928 23.337 38.0773C22.267 38.1618 21.3438 37.7178 20.7991 36.6252L20.7981 36.6229L20.7968 36.6202C20.4588 35.9775 20.5995 34.964 20.884 33.8944C21.1685 32.8252 21.5774 31.7268 21.6323 30.8346V30.8319C21.6898 29.6886 21.7541 28.6899 21.9459 27.9191C22.1383 27.1483 22.4408 26.6269 22.9765 26.3335C23.0017 26.32 23.0264 26.3069 23.0511 26.2948C23.1118 27.2849 23.6022 28.2953 24.4686 28.5137C25.417 28.7636 26.7837 27.9501 27.3608 27.2863C27.4763 27.2817 27.5886 27.2759 27.6979 27.2732C28.2044 27.261 28.6287 27.2903 29.0629 27.6696L29.0642 27.6709L29.0655 27.6719C29.399 27.9546 29.5576 28.4885 29.6952 29.0863C29.8327 29.6845 29.9424 30.3357 30.355 30.8L30.3554 30.8004L30.3559 30.8014C31.1487 31.6809 31.4036 32.2751 31.3816 32.6548Z" fill="white"/>
<path d="M12.1119 35.4584L12.1114 35.4611V35.4643C12.0197 36.666 11.342 37.3204 10.3011 37.5582C9.26107 37.7959 7.85028 37.5591 6.44174 36.8225C6.4413 36.8225 6.44085 36.822 6.4404 36.822C4.88174 35.9964 3.02781 36.0786 1.83815 35.8301C1.24354 35.706 0.855228 35.5191 0.67725 35.1721C0.499273 34.8247 0.495228 34.2193 0.873655 33.1869L0.875453 33.1824L0.876801 33.1779C1.06422 32.6004 0.92534 31.9685 0.834554 31.3752C0.743767 30.7825 0.699273 30.2427 0.90197 29.8669L0.903767 29.8633C1.16309 29.3635 1.54332 29.1847 2.01523 29.0157C2.48759 28.8462 3.04714 28.7132 3.48894 28.2701L3.49163 28.2678L3.49388 28.2656C3.90242 27.8346 4.20939 27.2939 4.56849 26.9105C4.87141 26.5869 5.17478 26.3725 5.63186 26.3694C5.63725 26.3699 5.64219 26.3699 5.64759 26.3694C5.72759 26.3699 5.81253 26.3766 5.90242 26.3906C6.50916 26.4822 7.03815 26.9065 7.54781 27.5977L9.01927 30.2795L9.01972 30.2808L9.02062 30.2817C9.41208 31.0993 10.239 31.9986 10.9397 32.9159C11.6404 33.8328 12.1824 34.7537 12.1119 35.4584Z" fill="white"/>
<path d="M19.4503 10.458C19.3321 10.2265 19.0908 10.0063 18.68 9.83778L18.6791 9.83733L18.6777 9.83688C17.8234 9.47104 17.4526 9.44497 16.9757 9.13486C16.1995 8.63598 15.5582 8.46115 15.0251 8.4634C14.746 8.4643 14.4966 8.51374 14.2732 8.59104C13.6238 8.81441 13.1928 9.28048 12.9227 9.53621L12.9222 9.53666C12.9222 9.53711 12.9218 9.53711 12.9218 9.53756C12.8687 9.58789 12.8004 9.63374 12.635 9.75509C12.4683 9.87688 12.2184 10.0603 11.8588 10.3299C11.5393 10.5695 11.4355 10.8814 11.546 11.2468C11.6561 11.6122 12.0085 12.0337 12.653 12.3982L12.6539 12.3991L12.6553 12.3996C13.0553 12.6346 13.3285 12.9515 13.6422 13.2036C13.7991 13.3295 13.964 13.4418 14.1627 13.5268C14.3613 13.6117 14.5932 13.6692 14.8836 13.6863C15.5649 13.7259 16.0665 13.5214 16.5092 13.2679C16.9528 13.0149 17.3285 12.7052 17.7595 12.5654L17.7604 12.565L17.7614 12.5645C18.6449 12.2886 19.2751 11.7326 19.4723 11.2045C19.5712 10.9403 19.5681 10.6895 19.4503 10.458Z" fill="white"/>
<path d="M17.2086 11.7622C16.5056 12.1286 15.6845 12.573 14.8108 12.573C13.9376 12.573 13.2477 12.1694 12.7515 11.7762C12.5034 11.5798 12.3021 11.3843 12.1501 11.2422C11.8866 11.0342 11.9182 10.7424 12.0264 10.751C12.208 10.7737 12.2354 11.0126 12.3497 11.1195C12.5043 11.2643 12.698 11.4517 12.9326 11.6377C13.4018 12.0094 14.0274 12.3712 14.8108 12.3712C15.5928 12.3712 16.5057 11.9121 17.0629 11.5995C17.3786 11.4224 17.7804 11.105 18.1082 10.8644C18.359 10.6803 18.3499 10.4586 18.557 10.4827C18.764 10.5068 18.6108 10.7281 18.3208 10.9812C18.0308 11.2343 17.5771 11.5701 17.2086 11.7622Z" fill="#D1D5DA"/>
<path d="M27.9726 26.7627C27.875 26.7591 27.7789 26.7596 27.6854 26.7618C27.6768 26.7623 27.6683 26.7623 27.6593 26.7623C27.9007 26 27.3667 25.4378 25.9438 24.7942C24.4683 24.1452 23.2926 24.2095 23.0939 25.5263C23.0813 25.5951 23.071 25.6656 23.0634 25.7366C22.9528 25.7753 22.8422 25.8238 22.7308 25.8845C22.0382 26.2638 21.6598 26.9515 21.4494 27.7956C21.2395 28.6387 21.1789 29.6576 21.1213 30.8032C21.1213 30.8036 21.1213 30.8037 21.1213 30.8041C21.0858 31.3799 20.8485 32.1592 20.6085 32.9844C18.1915 34.7088 14.8368 35.4558 11.9883 33.5115C11.7955 33.2063 11.5739 32.9039 11.3461 32.6054C11.2004 32.4149 11.0508 32.2257 10.9025 32.0388C11.1946 32.0392 11.4431 31.9911 11.644 31.9003C11.8939 31.7866 12.0692 31.605 12.1564 31.3713C12.3299 30.9043 12.1555 30.2454 11.5995 29.4926C11.0436 28.7403 10.102 27.8913 8.71865 27.0428C8.71865 27.0428 8.71865 27.0428 8.71865 27.0423C7.70202 26.4099 7.13393 25.6351 6.86787 24.7938C6.60135 23.952 6.63865 23.0419 6.84405 22.1434C7.23775 20.4189 8.24899 18.7416 8.89438 17.689C9.06786 17.5614 8.9564 17.9264 8.2409 19.2549C7.6 20.4693 6.40135 23.272 8.04225 25.4599C8.08629 23.903 8.45798 22.3151 9.08225 20.8297C9.99146 18.769 11.893 15.1947 12.044 12.3461C12.1222 12.4028 12.3897 12.5834 12.5088 12.6513C12.5092 12.6517 12.5092 12.6517 12.5097 12.6517C12.8584 12.8571 13.1204 13.1574 13.4598 13.4302C13.8 13.7034 14.2247 13.9394 14.8665 13.9767C14.9281 13.9803 14.9883 13.9821 15.0472 13.9821C15.7088 13.9821 16.2247 13.7664 16.6544 13.5205C17.1214 13.2535 17.4944 12.9578 17.8481 12.8428C17.8486 12.8423 17.849 12.8423 17.8495 12.8423C18.5969 12.6086 19.1906 12.1951 19.5285 11.7133C20.1092 14.0019 21.4593 17.3075 22.3272 18.9205C22.7888 19.7762 23.7065 21.5947 24.103 23.7857C24.3542 23.778 24.631 23.8144 24.9272 23.8903C25.9641 21.2023 24.0481 18.3074 23.1717 17.5011C22.818 17.1578 22.8009 17.0041 22.9767 17.0112C23.9268 17.8521 25.1748 19.5425 25.6288 21.4508C25.8359 22.3209 25.88 23.236 25.658 24.1389C25.7663 24.1838 25.8768 24.2328 25.9887 24.2859C27.653 25.0962 28.2683 25.8009 27.9726 26.7627Z" fill="white"/>
<path d="M19.5285 7.82157C19.5321 8.27506 19.4539 8.66112 19.2818 9.05528C19.1838 9.28 19.0711 9.46877 18.9358 9.63236C18.8899 9.61034 18.8423 9.58922 18.7928 9.56899C18.6216 9.49573 18.4701 9.43551 18.3344 9.38427C18.1987 9.33304 18.0927 9.29803 17.9835 9.26027C18.0626 9.16454 18.2185 9.05173 18.2765 8.91016C18.3646 8.69668 18.4078 8.48814 18.4159 8.2396C18.4159 8.22971 18.419 8.22117 18.419 8.20949C18.424 7.97128 18.3925 7.76769 18.3228 7.55915C18.25 7.34027 18.1574 7.18297 18.0235 7.05218C17.8891 6.92139 17.7552 6.86207 17.5943 6.85668C17.5867 6.85623 17.5795 6.85623 17.5718 6.85623C17.4208 6.85668 17.2896 6.90881 17.1538 7.02207C17.0113 7.14117 16.9057 7.29353 16.8177 7.50567C16.73 7.7178 16.6869 7.92814 16.6783 8.17803C16.677 8.18791 16.677 8.19645 16.677 8.20634C16.6738 8.34387 16.6828 8.46971 16.704 8.59196C16.3947 8.4378 15.9991 8.32539 15.7259 8.26023C15.7102 8.14202 15.7012 8.02023 15.6985 7.89258V7.85798C15.6935 7.40584 15.7677 7.01798 15.9416 6.62427C16.1156 6.23011 16.3308 5.94696 16.6337 5.7164C16.9371 5.48629 17.2351 5.38067 17.5879 5.37708H17.6045C17.9497 5.37708 18.2449 5.47865 18.5483 5.69842C18.8562 5.92224 19.0782 6.2018 19.2571 6.59281C19.4324 6.97393 19.5169 7.34652 19.5254 7.78831C19.5254 7.8 19.5254 7.80989 19.5285 7.82157Z" fill="white"/>
<path d="M14.3114 8.27324C14.266 8.28628 14.222 8.30021 14.1784 8.31504C13.9312 8.40043 13.7349 8.49468 13.5453 8.62007C13.5637 8.48883 13.5664 8.3558 13.552 8.20703C13.5507 8.19895 13.5507 8.1922 13.5507 8.18411C13.5309 7.98681 13.4891 7.82142 13.4194 7.65422C13.3453 7.48029 13.2621 7.3576 13.1529 7.26321C13.054 7.17782 12.9605 7.13827 12.8572 7.13917C12.8468 7.13917 12.836 7.13962 12.8253 7.14052C12.7093 7.1504 12.6131 7.20703 12.5219 7.31805C12.4311 7.42861 12.3713 7.56614 12.3282 7.74861C12.285 7.93063 12.2738 8.10951 12.2918 8.3149C12.2918 8.32299 12.2936 8.32973 12.2936 8.33782C12.3134 8.53692 12.3534 8.70232 12.4244 8.86951C12.4972 9.04164 12.5817 9.16434 12.6909 9.25872C12.7093 9.27445 12.7273 9.28883 12.7453 9.30142C12.632 9.38906 12.5559 9.45122 12.4624 9.51954C12.4026 9.56313 12.3316 9.61527 12.2489 9.67639C12.0687 9.5074 11.928 9.29527 11.8049 9.01527C11.6593 8.68448 11.5815 8.35324 11.5582 7.96223V7.95909C11.5366 7.56807 11.5748 7.23189 11.6822 6.88403C11.7901 6.53616 11.9339 6.28448 12.1429 6.07773C12.3514 5.87054 12.5617 5.76627 12.8152 5.75324C12.835 5.75234 12.8543 5.75189 12.8737 5.75189C13.1033 5.75234 13.3083 5.82875 13.5204 5.99818C13.7505 6.18201 13.9244 6.41706 14.0701 6.7483C14.2161 7.07953 14.2939 7.41077 14.3155 7.80178V7.80493C14.3258 7.96897 14.3244 8.12358 14.3114 8.27324Z" fill="white"/>
<path d="M15.4645 9.20853C15.4936 9.30185 15.644 9.28638 15.7309 9.33114C15.8071 9.37041 15.8685 9.45648 15.9542 9.45895C16.036 9.46132 16.1633 9.43062 16.174 9.34947C16.188 9.24225 16.0315 9.17411 15.9307 9.13483C15.8011 9.08428 15.635 9.05864 15.5133 9.12626C15.4855 9.14175 15.4551 9.17809 15.4645 9.20854V9.20853Z" fill="#D1D5DA"/>
<path d="M14.5763 9.20853C14.5472 9.30185 14.3968 9.28638 14.3099 9.33114C14.2337 9.37041 14.1724 9.45648 14.0866 9.45895C14.0048 9.46132 13.8775 9.43062 13.8669 9.34947C13.8528 9.24225 14.0094 9.17411 14.1101 9.13483C14.2398 9.08428 14.4059 9.05864 14.5275 9.12626C14.5554 9.14175 14.5858 9.17809 14.5763 9.20854V9.20853Z" fill="#D1D5DA"/>
</g>
<defs>
<clipPath id="clip0">
<rect width="32" height="38.6517" fill="white"/>
</clipPath>
</defs>
</svg>
